<svg width="625" height="416" viewBox="0 0 625 416" fill="none" xmlns="http://www.w3.org/2000/svg">
<rect width="625" height="416" fill="url(#paint0_linear_3568_3750)"/>
<path d="M20.2 348.136C19.7515 348.136 19.3273 348.061 18.9273 347.909C18.5273 347.758 18.1727 347.536 17.8636 347.245C17.7424 347.13 17.6152 346.991 17.4818 346.827C17.3545 346.664 17.2394 346.47 17.1364 346.245C17.0333 346.021 16.9485 345.77 16.8818 345.491C16.8152 345.206 16.7818 344.888 16.7818 344.536C16.7818 344.233 16.8121 343.906 16.8727 343.555C16.9333 343.197 17 342.861 17.0727 342.545C17.1515 342.23 17.2242 341.958 17.2909 341.727C17.3576 341.497 17.4 341.355 17.4182 341.3L18.5 341.645L19.5727 341.982C19.5182 342.145 19.4606 342.342 19.4 342.573C19.3394 342.797 19.2818 343.03 19.2273 343.273C19.1727 343.509 19.1273 343.739 19.0909 343.964C19.0545 344.188 19.0364 344.382 19.0364 344.545C19.0364 344.836 19.0758 345.073 19.1545 345.255C19.2394 345.43 19.3394 345.567 19.4545 345.664C19.5758 345.755 19.6939 345.812 19.8091 345.836C19.9242 345.861 20.0606 345.873 20.2182 345.873H31.0545C31.1273 345.873 31.2303 345.864 31.3636 345.845C31.503 345.821 31.6394 345.764 31.7727 345.673C31.9121 345.582 32.0333 345.445 32.1364 345.264C32.2394 345.076 32.2909 344.821 32.2909 344.5C32.2909 344.367 32.2788 344.206 32.2545 344.018C32.2364 343.824 32.2091 343.618 32.1727 343.4C32.1364 343.182 32.0939 342.961 32.0455 342.736C32.003 342.506 31.9606 342.288 31.9182 342.082C31.9 342.003 31.8848 341.927 31.8727 341.855L34.0182 341.291C34.0242 341.321 34.0303 341.348 34.0364 341.373C34.0848 341.603 34.1333 341.858 34.1818 342.136C34.2364 342.415 34.2848 342.697 34.3273 342.982C34.3758 343.261 34.4121 343.533 34.4364 343.8C34.4667 344.067 34.4818 344.3 34.4818 344.5C34.4818 345.124 34.3788 345.667 34.1727 346.127C33.9667 346.582 33.697 346.958 33.3636 347.255C33.0303 347.552 32.6545 347.773 32.2364 347.918C31.8242 348.064 31.4091 348.136 30.9909 348.136H20.2ZM27.5364 341.091L26.0091 339.545L27.5182 337.982L29.0818 339.545L27.5364 341.091ZM23.7273 341.1L22.2 339.555L23.7 337.991L25.2636 339.555L23.7273 341.1ZM41.2211 348.136C40.5544 348.136 39.9817 348.094 39.5029 348.009C39.0241 347.93 38.6211 347.812 38.2938 347.655C37.9665 347.491 37.7029 347.285 37.5029 347.036C37.309 346.788 37.1605 346.497 37.0575 346.164C36.9544 345.83 36.8847 345.455 36.8484 345.036C36.8181 344.612 36.8029 344.145 36.8029 343.636V335.027H39.0665V343.636C39.0665 344.121 39.0817 344.509 39.112 344.8C39.1484 345.091 39.2362 345.318 39.3756 345.482C39.5211 345.639 39.7362 345.745 40.0211 345.8C40.312 345.848 40.712 345.873 41.2211 345.873V348.136ZM48.3209 345.873V348.136H47.7482C47.233 348.136 46.7633 348.067 46.3391 347.927C45.9148 347.788 45.5572 347.582 45.2663 347.309C44.9269 347.594 44.5239 347.803 44.0572 347.936C43.5966 348.07 43.0694 348.136 42.4754 348.136H40.8663V345.873H42.4754C42.8451 345.873 43.1391 345.839 43.3572 345.773C43.5815 345.7 43.7482 345.612 43.8572 345.509C43.9724 345.406 44.0451 345.291 44.0754 345.164C44.1118 345.036 44.13 344.912 44.13 344.791V341.845H46.3845V344.727C46.3845 345 46.4451 345.215 46.5663 345.373C46.6875 345.524 46.8239 345.639 46.9754 345.718C47.133 345.791 47.2875 345.836 47.4391 345.855C47.5906 345.867 47.6936 345.873 47.7482 345.873H48.3209ZM42.8027 351.4L44.4391 349.745L46.1118 351.418L44.4572 353.073L42.8027 351.4ZM54.7212 340.5C54.7333 340.542 54.7575 340.642 54.7939 340.8C54.8363 340.958 54.8818 341.152 54.9303 341.382C54.9787 341.606 55.0272 341.858 55.0757 342.136C55.1303 342.415 55.1787 342.697 55.2212 342.982C55.2696 343.261 55.306 343.533 55.3303 343.8C55.3606 344.067 55.3757 344.3 55.3757 344.5C55.3757 345.124 55.2727 345.667 55.0666 346.127C54.8606 346.582 54.5909 346.958 54.2575 347.255C53.9242 347.552 53.5484 347.773 53.1303 347.918C52.7181 348.064 52.303 348.136 51.8848 348.136H47.9666V345.873H51.9484C52.0212 345.873 52.1242 345.864 52.2575 345.845C52.3969 345.821 52.5333 345.764 52.6666 345.673C52.806 345.582 52.9272 345.445 53.0303 345.264C53.1333 345.076 53.1848 344.821 53.1848 344.5C53.1848 344.367 53.1727 344.206 53.1484 344.018C53.1303 343.824 53.103 343.618 53.0666 343.4C53.0303 343.182 52.9878 342.961 52.9393 342.736C52.8969 342.506 52.8545 342.291 52.8121 342.091C52.7696 341.885 52.7272 341.7 52.6848 341.536C52.6424 341.367 52.609 341.236 52.5848 341.145L54.7212 340.5ZM51.503 337.427L49.9575 338.991L48.4121 337.445L49.9575 335.882L51.503 337.427ZM55.403 337.391L53.8757 338.936L52.2848 337.409L53.8484 335.845L55.403 337.391ZM53.3939 334.827L51.9393 336.282L50.503 334.845L51.9575 333.391L53.3939 334.827ZM59.9845 348.136H57.7209V335.027H59.9845V348.136ZM76.4575 348.136C76.009 348.136 75.5848 348.061 75.1848 347.909C74.7848 347.758 74.4302 347.536 74.1211 347.245C73.9999 347.13 73.8726 346.991 73.7393 346.827C73.612 346.664 73.4969 346.47 73.3939 346.245C73.2908 346.021 73.206 345.77 73.1393 345.491C73.0726 345.206 73.0393 344.888 73.0393 344.536C73.0393 344.233 73.0696 343.906 73.1302 343.555C73.1908 343.197 73.2575 342.861 73.3302 342.545C73.409 342.23 73.4817 341.958 73.5484 341.727C73.6151 341.497 73.6575 341.355 73.6757 341.3L74.7575 341.645L75.8302 341.982C75.7757 342.145 75.7181 342.342 75.6575 342.573C75.5969 342.797 75.5393 343.03 75.4848 343.273C75.4302 343.509 75.3848 343.739 75.3484 343.964C75.312 344.188 75.2939 344.382 75.2939 344.545C75.2939 344.836 75.3332 345.073 75.412 345.255C75.4969 345.43 75.5969 345.567 75.712 345.664C75.8332 345.755 75.9514 345.812 76.0666 345.836C76.1817 345.861 76.3181 345.873 76.4757 345.873H87.312C87.3848 345.873 87.4878 345.864 87.6211 345.845C87.7605 345.821 87.8969 345.764 88.0302 345.673C88.1696 345.582 88.2908 345.445 88.3939 345.264C88.4969 345.076 88.5484 344.821 88.5484 344.5C88.5484 344.367 88.5363 344.206 88.512 344.018C88.4939 343.824 88.4666 343.618 88.4302 343.4C88.3939 343.182 88.3514 342.961 88.3029 342.736C88.2605 342.506 88.2181 342.288 88.1757 342.082C88.1575 342.003 88.1423 341.927 88.1302 341.855L90.2757 341.291C90.2817 341.321 90.2878 341.348 90.2939 341.373C90.3423 341.603 90.3908 341.858 90.4393 342.136C90.4939 342.415 90.5423 342.697 90.5848 342.982C90.6332 343.261 90.6696 343.533 90.6939 343.8C90.7242 344.067 90.7393 344.3 90.7393 344.5C90.7393 345.124 90.6363 345.667 90.4302 346.127C90.2242 346.582 89.9545 346.958 89.6211 347.255C89.2878 347.552 88.912 347.773 88.4939 347.918C88.0817 348.064 87.6666 348.136 87.2484 348.136H76.4575ZM83.7939 341.091L82.2666 339.545L83.7757 337.982L85.3393 339.545L83.7939 341.091ZM79.9848 341.1L78.4575 339.555L79.9575 337.991L81.5211 339.555L79.9848 341.1ZM96.4144 347.582C96.378 348.418 96.2235 349.17 95.9507 349.836C95.678 350.509 95.3023 351.079 94.8235 351.545C94.3447 352.018 93.7659 352.382 93.0871 352.636C92.4083 352.891 91.6416 353.018 90.7871 353.018H89.6598V350.755H90.7871C91.3689 350.755 91.8719 350.694 92.2962 350.573C92.7204 350.452 93.0689 350.258 93.3416 349.991C93.6144 349.724 93.8174 349.376 93.9507 348.945C94.0841 348.521 94.1507 348.003 94.1507 347.391V341.855H96.4144V347.582ZM99.4723 350.755C99.9572 350.755 100.387 350.736 100.763 350.7C101.145 350.67 101.481 350.621 101.772 350.555C102.069 350.494 102.327 350.412 102.545 350.309C102.769 350.212 102.963 350.094 103.127 349.955C103.381 349.748 103.572 349.509 103.7 349.236C103.833 348.964 103.912 348.597 103.936 348.136H102.536C102.233 348.136 101.924 348.112 101.609 348.064C101.294 348.015 100.991 347.933 100.7 347.818C100.409 347.697 100.133 347.542 99.8723 347.355C99.6178 347.167 99.3935 346.936 99.1996 346.664C99.0117 346.385 98.8602 346.058 98.7451 345.682C98.636 345.306 98.5814 344.876 98.5814 344.391C98.5814 343.973 98.6178 343.603 98.6905 343.282C98.7632 342.955 98.8541 342.667 98.9632 342.418C99.0784 342.17 99.2057 341.955 99.3451 341.773C99.4844 341.585 99.6178 341.421 99.7451 341.282C100.109 340.918 100.521 340.639 100.981 340.445C101.442 340.245 101.939 340.145 102.472 340.145C103.133 340.145 103.697 340.261 104.163 340.491C104.636 340.715 105.021 341.027 105.318 341.427C105.621 341.827 105.842 342.303 105.981 342.855C106.121 343.4 106.191 343.994 106.191 344.636V345.873H107.736V348.136H106.181C106.157 348.967 106.009 349.667 105.736 350.236C105.469 350.806 105.069 351.303 104.536 351.727C104.257 351.945 103.954 352.133 103.627 352.291C103.3 352.455 102.933 352.591 102.527 352.7C102.121 352.809 101.666 352.888 101.163 352.936C100.666 352.991 100.103 353.018 99.4723 353.018V350.755ZM102.472 342.409C101.957 342.409 101.548 342.57 101.245 342.891C100.942 343.212 100.791 343.712 100.791 344.391C100.791 344.658 100.842 344.885 100.945 345.073C101.054 345.261 101.191 345.415 101.354 345.536C101.524 345.652 101.712 345.736 101.918 345.791C102.124 345.845 102.33 345.873 102.536 345.873H103.936V344.636C103.936 344.291 103.909 343.997 103.854 343.755C103.8 343.506 103.727 343.3 103.636 343.136C103.551 342.973 103.451 342.842 103.336 342.745C103.227 342.648 103.118 342.576 103.009 342.527C102.906 342.479 102.806 342.448 102.709 342.436C102.612 342.418 102.533 342.409 102.472 342.409ZM107.3 348.136V345.873H108.427C108.797 345.873 109.091 345.839 109.309 345.773C109.527 345.706 109.691 345.618 109.8 345.509C109.915 345.4 109.991 345.279 110.027 345.145C110.063 345.006 110.081 344.867 110.081 344.727V341.855H112.336V344.727C112.336 344.836 112.357 344.942 112.4 345.045C112.442 345.148 112.497 345.242 112.563 345.327C112.63 345.406 112.706 345.473 112.791 345.527C112.875 345.576 112.963 345.606 113.054 345.618L113.254 345.291C113.497 344.891 113.751 344.488 114.018 344.082C114.291 343.676 114.575 343.285 114.872 342.909C115.169 342.527 115.484 342.173 115.818 341.845C116.151 341.512 116.506 341.224 116.881 340.982C117.257 340.733 117.654 340.539 118.072 340.4C118.491 340.261 118.939 340.191 119.418 340.191C119.891 340.191 120.36 340.258 120.827 340.391C121.294 340.518 121.709 340.736 122.072 341.045C122.442 341.355 122.739 341.767 122.963 342.282C123.194 342.791 123.309 343.43 123.309 344.2C123.309 344.927 123.184 345.542 122.936 346.045C122.694 346.542 122.378 346.945 121.991 347.255C121.609 347.564 121.178 347.788 120.7 347.927C120.227 348.067 119.763 348.136 119.309 348.136H114.109C113.891 348.136 113.648 348.13 113.381 348.118C113.115 348.112 112.848 348.082 112.581 348.027C112.315 347.979 112.06 347.9 111.818 347.791C111.581 347.682 111.378 347.524 111.209 347.318C110.548 347.845 109.642 348.118 108.491 348.136H107.3ZM119.418 342.445C119.054 342.445 118.687 342.539 118.318 342.727C117.948 342.915 117.581 343.167 117.218 343.482C116.86 343.797 116.515 344.161 116.181 344.573C115.848 344.985 115.542 345.418 115.263 345.873H119.309C119.533 345.873 119.763 345.845 120 345.791C120.236 345.73 120.451 345.636 120.645 345.509C120.839 345.376 121 345.203 121.127 344.991C121.254 344.779 121.318 344.515 121.318 344.2C121.318 343.861 121.263 343.579 121.154 343.355C121.051 343.124 120.912 342.942 120.736 342.809C120.56 342.676 120.357 342.582 120.127 342.527C119.903 342.473 119.666 342.445 119.418 342.445ZM141.148 347.582C141.112 348.418 140.958 349.17 140.685 349.836C140.412 350.509 140.036 351.079 139.558 351.545C139.079 352.018 138.5 352.382 137.821 352.636C137.142 352.891 136.376 353.018 135.521 353.018H134.394V350.755H135.521C136.103 350.755 136.606 350.694 137.03 350.573C137.454 350.452 137.803 350.258 138.076 349.991C138.348 349.724 138.551 349.376 138.685 348.945C138.818 348.521 138.885 348.003 138.885 347.391V341.855H141.148V347.582ZM146.439 348.145C146.209 348.145 145.981 348.133 145.757 348.109C145.533 348.085 145.306 348.052 145.075 348.009C144.845 347.967 144.609 347.915 144.366 347.855C144.124 347.788 143.869 347.715 143.603 347.636L142.521 347.309L143.175 345.127C143.703 345.309 144.248 345.47 144.812 345.609C145.381 345.748 145.918 345.839 146.421 345.882C146.584 345.894 146.742 345.9 146.894 345.9C147.197 345.9 147.5 345.867 147.803 345.8C148.112 345.733 148.33 345.567 148.457 345.3C148.481 345.252 148.494 345.194 148.494 345.127C148.494 345.085 148.481 345.018 148.457 344.927C148.433 344.836 148.372 344.721 148.275 344.582L144.884 339.636L146.794 338.4L147.412 339.355C147.412 339.361 147.421 339.379 147.439 339.409C147.463 339.439 147.506 339.503 147.566 339.6C147.633 339.697 147.724 339.836 147.839 340.018C147.96 340.194 148.118 340.427 148.312 340.718C148.506 341.009 148.742 341.37 149.021 341.8C149.306 342.224 149.645 342.733 150.039 343.327C150.348 343.794 150.539 344.276 150.612 344.773C150.63 344.9 150.639 345.024 150.639 345.145C150.639 345.509 150.566 345.858 150.421 346.191C150.318 346.433 150.178 346.658 150.003 346.864C149.833 347.064 149.633 347.242 149.403 347.4C148.972 347.697 148.454 347.9 147.848 348.009C147.339 348.1 146.869 348.145 146.439 348.145ZM173.441 348.136H173.187C172.714 348.136 172.26 348.091 171.823 348C171.387 347.915 170.984 347.785 170.614 347.609C170.244 347.427 169.914 347.197 169.623 346.918C169.338 346.639 169.105 346.309 168.923 345.927C168.778 346.152 168.59 346.352 168.36 346.527C168.135 346.697 167.89 346.839 167.623 346.955C167.357 347.07 167.081 347.158 166.796 347.218C166.511 347.273 166.238 347.3 165.978 347.3C165.493 347.3 165.032 347.215 164.596 347.045C164.166 346.876 163.787 346.636 163.46 346.327C163.132 346.012 162.872 345.63 162.678 345.182C162.49 344.733 162.396 344.227 162.396 343.664C162.396 343.009 162.52 342.433 162.769 341.936C163.017 341.439 163.347 341.006 163.76 340.636C164.172 340.261 164.644 339.942 165.178 339.682C165.717 339.415 166.275 339.185 166.851 338.991L166.632 338.118L168.851 337.6L170.505 344.036C170.602 344.43 170.76 344.748 170.978 344.991C171.196 345.227 171.432 345.412 171.687 345.545C171.947 345.673 172.211 345.761 172.478 345.809C172.751 345.852 172.987 345.873 173.187 345.873H173.441V348.136ZM167.841 343.618C167.872 343.491 167.887 343.361 167.887 343.227C167.887 343.185 167.881 343.112 167.869 343.009C167.863 342.9 167.838 342.748 167.796 342.555C167.754 342.361 167.696 342.152 167.623 341.927C167.557 341.703 167.484 341.452 167.405 341.173C166.435 341.482 165.699 341.833 165.196 342.227C164.699 342.615 164.451 343.097 164.451 343.673C164.451 343.897 164.499 344.097 164.596 344.273C164.699 344.448 164.829 344.594 164.987 344.709C165.151 344.824 165.332 344.906 165.532 344.955C165.66 344.991 165.787 345.009 165.914 345.009C165.981 345.009 166.051 345.003 166.123 344.991C166.578 344.924 166.957 344.791 167.26 344.591C167.563 344.385 167.757 344.061 167.841 343.618ZM181.914 338.2C182.308 338.721 182.708 339.248 183.114 339.782C183.284 340.012 183.462 340.252 183.65 340.5C183.844 340.748 184.038 341.003 184.232 341.264C184.432 341.518 184.626 341.773 184.814 342.027C185.002 342.282 185.184 342.524 185.359 342.755C185.735 343.258 185.981 343.806 186.096 344.4C186.132 344.612 186.15 344.824 186.15 345.036C186.15 345.418 186.087 345.8 185.959 346.182C185.838 346.545 185.659 346.879 185.423 347.182C185.193 347.485 184.911 347.745 184.578 347.964C184.244 348.182 183.862 348.352 183.432 348.473C183.002 348.594 182.529 348.655 182.014 348.655C181.578 348.655 181.126 348.609 180.659 348.518C180.193 348.433 179.717 348.27 179.232 348.027C179.123 347.979 179.017 347.93 178.914 347.882C178.823 347.839 178.729 347.797 178.632 347.755C178.535 347.706 178.453 347.664 178.387 347.627C177.805 347.803 177.159 347.93 176.45 348.009C175.747 348.094 174.969 348.136 174.114 348.136H173.087V345.873H174.114C174.284 345.873 174.432 345.876 174.559 345.882C174.693 345.882 174.82 345.882 174.941 345.882C175.056 345.882 175.172 345.879 175.287 345.873C175.408 345.867 175.541 345.855 175.687 345.836C175.529 345.655 175.387 345.479 175.259 345.309C175.138 345.133 175.032 344.952 174.941 344.764C174.856 344.57 174.79 344.367 174.741 344.155C174.699 343.936 174.678 343.697 174.678 343.436C174.678 342.939 174.772 342.482 174.959 342.064C175.153 341.645 175.417 341.288 175.75 340.991C176.09 340.694 176.484 340.464 176.932 340.3C177.387 340.13 177.875 340.045 178.396 340.045C178.984 340.045 179.505 340.164 179.959 340.4C180.42 340.63 180.805 340.924 181.114 341.282C181.429 341.633 181.666 342.015 181.823 342.427C181.987 342.839 182.069 343.224 182.069 343.582C182.069 343.873 182.038 344.139 181.978 344.382C181.923 344.624 181.844 344.855 181.741 345.073C181.638 345.285 181.511 345.488 181.359 345.682C181.208 345.876 181.038 346.067 180.85 346.255C181.038 346.315 181.232 346.373 181.432 346.427C181.632 346.476 181.826 346.5 182.014 346.5C182.202 346.5 182.399 346.488 182.605 346.464C182.811 346.433 183.005 346.379 183.187 346.3C183.375 346.215 183.538 346.1 183.678 345.955C183.823 345.809 183.932 345.618 184.005 345.382C184.029 345.297 184.041 345.209 184.041 345.118C184.041 344.955 183.993 344.745 183.896 344.491C183.799 344.236 183.62 343.912 183.359 343.518C183.105 343.124 182.787 342.691 182.405 342.218C182.023 341.739 181.605 341.218 181.15 340.655L180.205 339.482L181.914 338.2ZM176.823 343.436C176.823 343.661 176.856 343.861 176.923 344.036C176.996 344.206 177.102 344.364 177.241 344.509C177.387 344.655 177.562 344.797 177.769 344.936C177.981 345.07 178.226 345.212 178.505 345.364C178.693 345.273 178.875 345.17 179.05 345.055C179.226 344.939 179.378 344.812 179.505 344.673C179.638 344.527 179.744 344.367 179.823 344.191C179.902 344.015 179.941 343.821 179.941 343.609C179.941 343.355 179.887 343.13 179.778 342.936C179.669 342.742 179.535 342.582 179.378 342.455C179.22 342.327 179.05 342.233 178.869 342.173C178.693 342.112 178.535 342.082 178.396 342.082C178.19 342.082 177.99 342.118 177.796 342.191C177.608 342.264 177.441 342.364 177.296 342.491C177.15 342.612 177.035 342.755 176.95 342.918C176.866 343.082 176.823 343.255 176.823 343.436ZM192.962 348.136C192.296 348.136 191.723 348.094 191.244 348.009C190.765 347.93 190.362 347.812 190.035 347.655C189.708 347.491 189.444 347.285 189.244 347.036C189.05 346.788 188.902 346.497 188.799 346.164C188.696 345.83 188.626 345.455 188.59 345.036C188.559 344.612 188.544 344.145 188.544 343.636V335.027H190.808V343.636C190.808 344.121 190.823 344.509 190.853 344.8C190.89 345.091 190.977 345.318 191.117 345.482C191.262 345.639 191.477 345.745 191.762 345.8C192.053 345.848 192.453 345.873 192.962 345.873V348.136ZM199.344 346.418C199.398 346.418 199.483 346.409 199.598 346.391C199.72 346.367 199.841 346.3 199.962 346.191C200.083 346.082 200.189 345.915 200.28 345.691C200.377 345.461 200.426 345.139 200.426 344.727C200.426 344.57 200.395 344.37 200.335 344.127C200.28 343.879 200.18 343.639 200.035 343.409C199.895 343.173 199.705 342.973 199.462 342.809C199.226 342.639 198.926 342.555 198.562 342.555C198.247 342.555 197.989 342.648 197.789 342.836C197.589 343.024 197.42 343.258 197.28 343.536C197.147 343.815 197.032 344.118 196.935 344.445C196.844 344.767 196.744 345.061 196.635 345.327C196.859 345.455 197.095 345.585 197.344 345.718C197.598 345.845 197.847 345.961 198.089 346.064C198.332 346.167 198.559 346.252 198.771 346.318C198.989 346.385 199.18 346.418 199.344 346.418ZM198.562 340.3C199.198 340.3 199.753 340.418 200.226 340.655C200.705 340.891 201.098 341.209 201.408 341.609C201.723 342.003 201.956 342.461 202.108 342.982C202.265 343.503 202.344 344.048 202.344 344.618C202.344 345.248 202.289 345.785 202.18 346.227C202.071 346.67 201.926 347.036 201.744 347.327C201.568 347.618 201.365 347.845 201.135 348.009C200.911 348.179 200.683 348.303 200.453 348.382C200.229 348.467 200.011 348.518 199.798 348.536C199.586 348.561 199.405 348.573 199.253 348.573C198.95 348.573 198.662 348.542 198.389 348.482C198.117 348.427 197.838 348.345 197.553 348.236C197.274 348.133 196.983 348.006 196.68 347.855C196.377 347.697 196.047 347.521 195.689 347.327C195.417 347.618 195.123 347.827 194.808 347.955C194.498 348.076 194.135 348.136 193.717 348.136H192.598L192.58 345.873H193.717C193.85 345.873 193.965 345.833 194.062 345.755C194.165 345.676 194.256 345.567 194.335 345.427C194.42 345.282 194.495 345.109 194.562 344.909C194.635 344.703 194.708 344.476 194.78 344.227C194.901 343.791 195.047 343.342 195.217 342.882C195.386 342.415 195.611 341.991 195.889 341.609C196.174 341.227 196.532 340.915 196.962 340.673C197.392 340.424 197.926 340.3 198.562 340.3ZM223.558 339.091L222.885 339.8C222.8 339.879 222.652 340.042 222.44 340.291C222.234 340.539 221.982 340.858 221.685 341.245C221.388 341.627 221.058 342.073 220.694 342.582C220.337 343.091 219.967 343.652 219.585 344.264C219.209 344.876 218.834 345.53 218.458 346.227C218.082 346.924 217.731 347.652 217.403 348.409L215.331 347.5C215.555 346.985 215.803 346.476 216.076 345.973C216.349 345.464 216.631 344.973 216.922 344.5C217.212 344.021 217.5 343.564 217.785 343.127C218.076 342.691 218.346 342.285 218.594 341.909C218.34 341.909 218.073 341.891 217.794 341.855C217.522 341.818 217.249 341.761 216.976 341.682C216.709 341.597 216.452 341.488 216.203 341.355C215.961 341.215 215.746 341.045 215.558 340.845C215.249 340.506 215.019 340.136 214.867 339.736C214.722 339.336 214.649 338.921 214.649 338.491C214.649 337.988 214.746 337.494 214.94 337.009C215.14 336.524 215.431 336.088 215.812 335.7C216.025 335.512 216.243 335.355 216.467 335.227C216.697 335.094 216.946 334.982 217.212 334.891C217.485 334.794 217.779 334.712 218.094 334.645C218.416 334.579 218.77 334.518 219.158 334.464L219.603 336.573C219.385 336.591 219.164 336.624 218.94 336.673C218.716 336.721 218.503 336.779 218.303 336.845C218.103 336.912 217.922 336.991 217.758 337.082C217.594 337.167 217.461 337.258 217.358 337.355C217.231 337.476 217.125 337.624 217.04 337.8C216.955 337.97 216.9 338.148 216.876 338.336C216.864 338.415 216.858 338.494 216.858 338.573C216.858 338.682 216.873 338.812 216.903 338.964C216.934 339.109 217.012 339.255 217.14 339.4C217.225 339.503 217.385 339.6 217.622 339.691C217.797 339.758 218.003 339.791 218.24 339.791C218.319 339.791 218.4 339.788 218.485 339.782C218.897 339.758 219.34 339.606 219.812 339.327C220.285 339.048 220.788 338.661 221.322 338.164L222.031 337.427L223.558 339.091ZM240.829 348.136C240.162 348.136 239.589 348.094 239.111 348.009C238.632 347.93 238.229 347.812 237.902 347.655C237.574 347.491 237.311 347.285 237.111 347.036C236.917 346.788 236.768 346.497 236.665 346.164C236.562 345.83 236.492 345.455 236.456 345.036C236.426 344.612 236.411 344.145 236.411 343.636V335.027H238.674V343.636C238.674 344.121 238.689 344.509 238.72 344.8C238.756 345.091 238.844 345.318 238.983 345.482C239.129 345.639 239.344 345.745 239.629 345.8C239.92 345.848 240.32 345.873 240.829 345.873V348.136ZM247.22 340.5C247.232 340.542 247.256 340.642 247.292 340.8C247.335 340.958 247.38 341.152 247.429 341.382C247.477 341.606 247.526 341.858 247.574 342.136C247.629 342.415 247.677 342.697 247.72 342.982C247.768 343.261 247.804 343.533 247.829 343.8C247.859 344.067 247.874 344.3 247.874 344.5C247.874 345.124 247.771 345.667 247.565 346.127C247.359 346.582 247.089 346.958 246.756 347.255C246.423 347.552 246.047 347.773 245.629 347.918C245.217 348.064 244.801 348.136 244.383 348.136H240.465V345.873H244.447C244.52 345.873 244.623 345.864 244.756 345.845C244.895 345.821 245.032 345.764 245.165 345.673C245.304 345.582 245.426 345.445 245.529 345.264C245.632 345.076 245.683 344.821 245.683 344.5C245.683 344.367 245.671 344.206 245.647 344.018C245.629 343.824 245.601 343.618 245.565 343.4C245.529 343.182 245.486 342.961 245.438 342.736C245.395 342.506 245.353 342.291 245.31 342.091C245.268 341.885 245.226 341.7 245.183 341.536C245.141 341.367 245.107 341.236 245.083 341.145L247.22 340.5ZM246.365 338.727L244.838 337.182L246.347 335.618L247.91 337.182L246.365 338.727ZM242.556 338.736L241.029 337.191L242.529 335.627L244.092 337.191L242.556 338.736ZM268.122 339.591C268.291 339.591 268.458 339.591 268.622 339.591C268.785 339.585 268.949 339.576 269.113 339.564C269.276 339.552 269.446 339.536 269.622 339.518C269.804 339.494 269.998 339.464 270.204 339.427L270.713 341.473C270.398 341.564 270.094 341.642 269.804 341.709C269.513 341.77 269.213 341.821 268.904 341.864C268.594 341.9 268.264 341.93 267.913 341.955C267.567 341.973 267.176 341.982 266.74 341.982C266.11 341.982 265.467 341.933 264.813 341.836C264.164 341.739 263.546 341.564 262.958 341.309C262.994 341.8 263.025 342.248 263.049 342.655C263.079 343.061 263.101 343.445 263.113 343.809C263.125 344.173 263.134 344.527 263.14 344.873C263.146 345.218 263.149 345.576 263.149 345.945C263.149 346.2 263.146 346.461 263.14 346.727C263.14 346.988 263.14 347.273 263.14 347.582V348.145H260.885V347.573C260.885 346.682 260.879 345.848 260.867 345.073C260.861 344.297 260.84 343.564 260.804 342.873C260.773 342.182 260.728 341.521 260.667 340.891C260.607 340.261 260.525 339.642 260.422 339.036C260.319 338.43 260.191 337.827 260.04 337.227C259.888 336.627 259.707 336.012 259.494 335.382L261.676 334.691C261.773 335.006 261.861 335.318 261.94 335.627C262.025 335.936 262.107 336.252 262.185 336.573C262.234 336.748 262.276 336.93 262.313 337.118C262.355 337.3 262.401 337.482 262.449 337.664C262.558 338.094 262.728 338.445 262.958 338.718C263.194 338.985 263.449 339.182 263.722 339.309C263.685 339.218 263.646 339.121 263.604 339.018C263.561 338.915 263.522 338.8 263.485 338.673C263.455 338.539 263.428 338.394 263.404 338.236C263.385 338.079 263.376 337.903 263.376 337.709C263.376 337.158 263.482 336.667 263.694 336.236C263.913 335.8 264.194 335.433 264.54 335.136C264.891 334.833 265.285 334.606 265.722 334.455C266.164 334.297 266.607 334.218 267.049 334.218C267.401 334.218 267.725 334.261 268.022 334.345C268.325 334.424 268.607 334.527 268.867 334.655C269.128 334.782 269.373 334.924 269.604 335.082C269.84 335.233 270.07 335.382 270.294 335.527L269.222 337.445C269.01 337.294 268.81 337.161 268.622 337.045C268.434 336.924 268.252 336.824 268.076 336.745C267.901 336.667 267.728 336.606 267.558 336.564C267.394 336.515 267.225 336.488 267.049 336.482H266.994C266.837 336.482 266.667 336.509 266.485 336.564C266.304 336.618 266.134 336.703 265.976 336.818C265.819 336.933 265.685 337.076 265.576 337.245C265.473 337.409 265.422 337.597 265.422 337.809C265.422 338.155 265.504 338.442 265.667 338.673C265.831 338.903 266.04 339.088 266.294 339.227C266.555 339.361 266.846 339.455 267.167 339.509C267.488 339.564 267.807 339.591 268.122 339.591ZM300.701 341.855V344.518C300.701 344.73 300.731 344.912 300.792 345.064C300.858 345.209 300.94 345.333 301.037 345.436C301.14 345.533 301.252 345.612 301.373 345.673C301.495 345.727 301.613 345.77 301.728 345.8C301.843 345.83 301.943 345.852 302.028 345.864C302.119 345.87 302.186 345.873 302.228 345.873H302.792V348.136H302.228C302.022 348.136 301.801 348.121 301.564 348.091C301.334 348.067 301.101 348.024 300.864 347.964C300.634 347.897 300.41 347.809 300.192 347.7C299.973 347.591 299.779 347.458 299.61 347.3C298.949 347.852 298.052 348.13 296.919 348.136H286.428C285.979 348.136 285.555 348.061 285.155 347.909C284.755 347.758 284.401 347.536 284.092 347.245C283.97 347.13 283.843 346.991 283.71 346.827C283.583 346.664 283.467 346.47 283.364 346.245C283.261 346.021 283.176 345.77 283.11 345.491C283.043 345.206 283.01 344.888 283.01 344.536C283.01 344.233 283.04 343.906 283.101 343.555C283.161 343.197 283.228 342.861 283.301 342.545C283.379 342.23 283.452 341.958 283.519 341.727C283.586 341.497 283.628 341.355 283.646 341.3L284.728 341.645L285.801 341.982C285.746 342.145 285.689 342.342 285.628 342.573C285.567 342.797 285.51 343.03 285.455 343.273C285.401 343.515 285.355 343.748 285.319 343.973C285.283 344.197 285.264 344.391 285.264 344.555C285.264 344.845 285.304 345.082 285.383 345.264C285.467 345.439 285.567 345.576 285.683 345.673C285.804 345.764 285.934 345.824 286.073 345.855C286.213 345.885 286.337 345.9 286.446 345.9H296.855C297.189 345.9 297.473 345.87 297.71 345.809C297.946 345.742 298.122 345.648 298.237 345.527C298.376 345.37 298.446 345.142 298.446 344.845V341.855H300.701ZM293.683 341.091L292.155 339.545L293.664 337.982L295.228 339.545L293.683 341.091ZM289.873 341.1L288.346 339.555L289.846 337.991L291.41 339.555L289.873 341.1ZM312.177 345.873V348.136H310.832C310.317 348.136 309.847 348.067 309.423 347.927C308.998 347.788 308.641 347.582 308.35 347.309C308.011 347.594 307.607 347.803 307.141 347.936C306.68 348.07 306.153 348.136 305.559 348.136H302.414V345.873H305.559C305.929 345.873 306.223 345.839 306.441 345.773C306.665 345.7 306.832 345.612 306.941 345.509C307.056 345.406 307.129 345.291 307.159 345.164C307.195 345.036 307.214 344.912 307.214 344.791V341.845H309.468V344.727C309.468 345 309.529 345.215 309.65 345.373C309.771 345.524 309.907 345.639 310.059 345.718C310.217 345.791 310.371 345.836 310.523 345.855C310.674 345.867 310.777 345.873 310.832 345.873H312.177ZM308.541 353.136L307.014 351.591L308.523 350.027L310.086 351.591L308.541 353.136ZM304.732 353.145L303.204 351.6L304.704 350.036L306.268 351.6L304.732 353.145ZM318.554 346.418C318.608 346.418 318.693 346.409 318.808 346.391C318.929 346.367 319.051 346.3 319.172 346.191C319.293 346.082 319.399 345.915 319.49 345.691C319.587 345.461 319.635 345.139 319.635 344.727C319.635 344.57 319.605 344.37 319.544 344.127C319.49 343.879 319.39 343.639 319.244 343.409C319.105 343.173 318.914 342.973 318.672 342.809C318.435 342.639 318.135 342.555 317.772 342.555C317.457 342.555 317.199 342.648 316.999 342.836C316.799 343.024 316.629 343.258 316.49 343.536C316.357 343.815 316.241 344.118 316.144 344.445C316.054 344.767 315.954 345.061 315.844 345.327C316.069 345.455 316.305 345.585 316.554 345.718C316.808 345.845 317.057 345.961 317.299 346.064C317.541 346.167 317.769 346.252 317.981 346.318C318.199 346.385 318.39 346.418 318.554 346.418ZM317.772 340.3C318.408 340.3 318.963 340.418 319.435 340.655C319.914 340.891 320.308 341.209 320.617 341.609C320.932 342.003 321.166 342.461 321.317 342.982C321.475 343.503 321.554 344.048 321.554 344.618C321.554 345.248 321.499 345.785 321.39 346.227C321.281 346.67 321.135 347.036 320.954 347.327C320.778 347.618 320.575 347.845 320.344 348.009C320.12 348.179 319.893 348.303 319.663 348.382C319.438 348.467 319.22 348.518 319.008 348.536C318.796 348.561 318.614 348.573 318.463 348.573C318.16 348.573 317.872 348.542 317.599 348.482C317.326 348.427 317.047 348.345 316.763 348.236C316.484 348.133 316.193 348.006 315.89 347.855C315.587 347.697 315.257 347.521 314.899 347.327C314.626 347.618 314.332 347.827 314.017 347.955C313.708 348.076 313.344 348.136 312.926 348.136H311.808L311.79 345.873H312.926C313.06 345.873 313.175 345.833 313.272 345.755C313.375 345.676 313.466 345.567 313.544 345.427C313.629 345.282 313.705 345.109 313.772 344.909C313.844 344.703 313.917 344.476 313.99 344.227C314.111 343.791 314.257 343.342 314.426 342.882C314.596 342.415 314.82 341.991 315.099 341.609C315.384 341.227 315.741 340.915 316.172 340.673C316.602 340.424 317.135 340.3 317.772 340.3ZM324.42 350.755C324.904 350.755 325.335 350.736 325.71 350.7C326.092 350.67 326.429 350.621 326.72 350.555C327.017 350.494 327.274 350.412 327.492 350.309C327.717 350.212 327.91 350.094 328.074 349.955C328.329 349.748 328.52 349.509 328.647 349.236C328.78 348.964 328.859 348.597 328.883 348.136H327.483C327.18 348.136 326.871 348.112 326.556 348.064C326.241 348.015 325.938 347.933 325.647 347.818C325.356 347.697 325.08 347.542 324.82 347.355C324.565 347.167 324.341 346.936 324.147 346.664C323.959 346.385 323.807 346.058 323.692 345.682C323.583 345.306 323.529 344.876 323.529 344.391C323.529 343.973 323.565 343.603 323.638 343.282C323.71 342.955 323.801 342.667 323.91 342.418C324.026 342.17 324.153 341.955 324.292 341.773C324.432 341.585 324.565 341.421 324.692 341.282C325.056 340.918 325.468 340.639 325.929 340.445C326.389 340.245 326.886 340.145 327.42 340.145C328.08 340.145 328.644 340.261 329.11 340.491C329.583 340.715 329.968 341.027 330.265 341.427C330.568 341.827 330.789 342.303 330.929 342.855C331.068 343.4 331.138 343.994 331.138 344.636V347.864C331.138 348.767 331.001 349.524 330.729 350.136C330.456 350.755 330.041 351.285 329.483 351.727C329.204 351.945 328.901 352.133 328.574 352.291C328.247 352.455 327.88 352.591 327.474 352.7C327.068 352.809 326.614 352.888 326.11 352.936C325.614 352.991 325.05 353.018 324.42 353.018V350.755ZM327.42 342.409C326.904 342.409 326.495 342.57 326.192 342.891C325.889 343.212 325.738 343.712 325.738 344.391C325.738 344.658 325.789 344.885 325.892 345.073C326.001 345.261 326.138 345.415 326.301 345.536C326.471 345.652 326.659 345.736 326.865 345.791C327.071 345.845 327.277 345.873 327.483 345.873H328.883V344.636C328.883 344.291 328.856 343.997 328.801 343.755C328.747 343.506 328.674 343.3 328.583 343.136C328.498 342.973 328.398 342.842 328.283 342.745C328.174 342.648 328.065 342.576 327.956 342.527C327.853 342.479 327.753 342.448 327.656 342.436C327.559 342.418 327.48 342.409 327.42 342.409ZM340.553 348.136H340.207C339.959 348.136 339.722 348.121 339.498 348.091C339.28 348.061 339.065 347.976 338.853 347.836C338.78 348.618 338.601 349.327 338.316 349.964C338.031 350.6 337.65 351.142 337.171 351.591C336.698 352.045 336.131 352.397 335.471 352.645C334.81 352.894 334.068 353.018 333.243 353.018H332.107V350.755H333.243C333.825 350.755 334.328 350.694 334.753 350.573C335.177 350.452 335.525 350.258 335.798 349.991C336.071 349.724 336.274 349.376 336.407 348.945C336.54 348.521 336.607 348.003 336.607 347.391V341.855H338.871V344.573C338.871 344.852 338.928 345.076 339.043 345.245C339.165 345.415 339.301 345.548 339.453 345.645C339.61 345.736 339.762 345.797 339.907 345.827C340.053 345.858 340.153 345.873 340.207 345.873H340.553V348.136ZM352.678 344.518C352.648 344.536 352.551 344.603 352.387 344.718C352.223 344.827 352.002 344.97 351.723 345.145C351.784 345.327 351.878 345.47 352.005 345.573C352.132 345.67 352.263 345.742 352.396 345.791C352.529 345.833 352.654 345.858 352.769 345.864C352.89 345.87 352.975 345.873 353.023 345.873H354.687V348.136H353.023C352.302 348.13 351.654 347.973 351.078 347.664C350.508 347.348 350.063 346.879 349.742 346.255C349.275 346.485 348.772 346.715 348.232 346.945C347.693 347.17 347.129 347.37 346.542 347.545C345.954 347.721 345.351 347.864 344.732 347.973C344.114 348.082 343.496 348.136 342.878 348.136H340.169V345.873H342.878C343.472 345.873 344.105 345.812 344.778 345.691C345.451 345.57 346.114 345.415 346.769 345.227C347.423 345.033 348.045 344.818 348.632 344.582C349.226 344.345 349.742 344.112 350.178 343.882C349.905 343.797 349.605 343.706 349.278 343.609C348.951 343.506 348.617 343.406 348.278 343.309C347.939 343.206 347.602 343.109 347.269 343.018C346.935 342.921 346.623 342.836 346.332 342.764C346.042 342.691 345.781 342.633 345.551 342.591C345.32 342.548 345.139 342.527 345.005 342.527C344.866 342.527 344.742 342.545 344.632 342.582C344.529 342.612 344.435 342.667 344.351 342.745C344.266 342.818 344.187 342.915 344.114 343.036C344.042 343.158 343.966 343.303 343.887 343.473L341.805 342.845C341.92 342.482 342.06 342.142 342.223 341.827C342.393 341.506 342.596 341.227 342.832 340.991C343.075 340.755 343.354 340.57 343.669 340.436C343.984 340.297 344.345 340.227 344.751 340.227C344.908 340.227 345.132 340.261 345.423 340.327C345.714 340.394 346.045 340.482 346.414 340.591C346.784 340.7 347.178 340.824 347.596 340.964C348.02 341.103 348.445 341.248 348.869 341.4C349.293 341.552 349.705 341.7 350.105 341.845C350.505 341.991 350.866 342.124 351.187 342.245C351.508 342.361 351.778 342.458 351.996 342.536C352.214 342.615 352.354 342.664 352.414 342.682L352.678 344.518ZM361.054 346.418C361.108 346.418 361.193 346.409 361.308 346.391C361.429 346.367 361.551 346.3 361.672 346.191C361.793 346.082 361.899 345.915 361.99 345.691C362.087 345.461 362.135 345.139 362.135 344.727C362.135 344.57 362.105 344.37 362.044 344.127C361.99 343.879 361.89 343.639 361.744 343.409C361.605 343.173 361.414 342.973 361.172 342.809C360.935 342.639 360.635 342.555 360.272 342.555C359.957 342.555 359.699 342.648 359.499 342.836C359.299 343.024 359.129 343.258 358.99 343.536C358.857 343.815 358.741 344.118 358.644 344.445C358.554 344.767 358.454 345.061 358.344 345.327C358.569 345.455 358.805 345.585 359.054 345.718C359.308 345.845 359.557 345.961 359.799 346.064C360.041 346.167 360.269 346.252 360.481 346.318C360.699 346.385 360.89 346.418 361.054 346.418ZM360.272 340.3C360.908 340.3 361.463 340.418 361.935 340.655C362.414 340.891 362.808 341.209 363.117 341.609C363.432 342.003 363.666 342.461 363.817 342.982C363.975 343.503 364.054 344.048 364.054 344.618C364.054 345.248 363.999 345.785 363.89 346.227C363.781 346.67 363.635 347.036 363.454 347.327C363.278 347.618 363.075 347.845 362.844 348.009C362.62 348.179 362.393 348.303 362.163 348.382C361.938 348.467 361.72 348.518 361.508 348.536C361.296 348.561 361.114 348.573 360.963 348.573C360.66 348.573 360.372 348.542 360.099 348.482C359.826 348.427 359.547 348.345 359.263 348.236C358.984 348.133 358.693 348.006 358.39 347.855C358.087 347.697 357.757 347.521 357.399 347.327C357.126 347.618 356.832 347.827 356.517 347.955C356.208 348.076 355.844 348.136 355.426 348.136H354.308L354.29 345.873H355.426C355.56 345.873 355.675 345.833 355.772 345.755C355.875 345.676 355.966 345.567 356.044 345.427C356.129 345.282 356.205 345.109 356.272 344.909C356.344 344.703 356.417 344.476 356.49 344.227C356.611 343.791 356.757 343.342 356.926 342.882C357.096 342.415 357.32 341.991 357.599 341.609C357.884 341.227 358.241 340.915 358.672 340.673C359.102 340.424 359.635 340.3 360.272 340.3ZM379.922 346.636C379.922 346.848 379.874 347.045 379.777 347.227C379.68 347.409 379.549 347.567 379.386 347.7C379.228 347.827 379.049 347.927 378.849 348C378.649 348.079 378.446 348.118 378.24 348.118C377.943 348.118 377.68 348.058 377.449 347.936C377.219 347.815 377.022 347.655 376.858 347.455C376.701 347.248 376.58 347.015 376.495 346.755C376.41 346.488 376.368 346.212 376.368 345.927C376.368 345.194 376.54 344.518 376.886 343.9C377.237 343.276 377.801 342.691 378.577 342.145L379.468 342.973C378.904 343.373 378.492 343.77 378.231 344.164C377.971 344.552 377.825 344.939 377.795 345.327C377.892 345.285 378.007 345.245 378.14 345.209C378.28 345.167 378.419 345.145 378.558 345.145C378.746 345.145 378.922 345.182 379.086 345.255C379.255 345.327 379.401 345.43 379.522 345.564C379.643 345.697 379.74 345.855 379.813 346.036C379.886 346.218 379.922 346.418 379.922 346.636ZM384.986 348.136C384.538 348.136 384.114 348.061 383.714 347.909C383.314 347.758 382.959 347.536 382.65 347.245C382.529 347.13 382.402 346.991 382.268 346.827C382.141 346.664 382.026 346.47 381.923 346.245C381.82 346.021 381.735 345.77 381.668 345.491C381.602 345.206 381.568 344.888 381.568 344.536C381.568 344.233 381.599 343.906 381.659 343.555C381.72 343.197 381.786 342.861 381.859 342.545C381.938 342.23 382.011 341.958 382.077 341.727C382.144 341.497 382.186 341.355 382.205 341.3L383.286 341.645L384.359 341.982C384.305 342.145 384.247 342.342 384.186 342.573C384.126 342.797 384.068 343.03 384.014 343.273C383.959 343.509 383.914 343.739 383.877 343.964C383.841 344.188 383.823 344.382 383.823 344.545C383.823 344.836 383.862 345.073 383.941 345.255C384.026 345.43 384.126 345.567 384.241 345.664C384.362 345.755 384.493 345.815 384.632 345.845C384.771 345.876 384.896 345.891 385.005 345.891L390.386 345.882C391.12 345.882 391.765 345.876 392.323 345.864C392.886 345.852 393.362 345.821 393.75 345.773C394.144 345.718 394.456 345.639 394.686 345.536C394.917 345.427 395.065 345.282 395.132 345.1C395.15 345.052 395.159 344.997 395.159 344.936C395.159 344.858 395.135 344.755 395.086 344.627C395.038 344.494 394.941 344.327 394.796 344.127C394.656 343.927 394.486 343.712 394.286 343.482C394.086 343.245 393.868 343 393.632 342.745C393.08 342.164 392.574 341.664 392.114 341.245C391.659 340.827 391.268 340.485 390.941 340.218C390.614 339.945 390.356 339.745 390.168 339.618C389.986 339.485 389.893 339.418 389.886 339.418L390.05 336.982L398.241 333.327L399.15 335.4L392.259 338.4C392.689 338.721 393.159 339.118 393.668 339.591C394.177 340.058 394.732 340.624 395.332 341.291C395.58 341.57 395.82 341.845 396.05 342.118C396.28 342.391 396.483 342.67 396.659 342.955C396.835 343.239 396.974 343.539 397.077 343.855C397.186 344.164 397.241 344.494 397.241 344.845C397.241 344.906 397.241 344.973 397.241 345.045C397.241 345.112 397.235 345.173 397.223 345.227C397.12 345.912 396.893 346.452 396.541 346.845C396.189 347.233 395.723 347.524 395.141 347.718C394.559 347.906 393.868 348.021 393.068 348.064C392.274 348.112 391.38 348.136 390.386 348.136H384.986ZM390.141 334.282L397.35 331.2L397.841 332.245L390.014 335.6L390.141 334.282ZM403.635 347.582C403.598 348.418 403.444 349.17 403.171 349.836C402.898 350.509 402.523 351.079 402.044 351.545C401.565 352.018 400.986 352.382 400.307 352.636C399.629 352.891 398.862 353.018 398.007 353.018H396.88V350.755H398.007C398.589 350.755 399.092 350.694 399.517 350.573C399.941 350.452 400.289 350.258 400.562 349.991C400.835 349.724 401.038 349.376 401.171 348.945C401.304 348.521 401.371 348.003 401.371 347.391V341.855H403.635V347.582ZM413.607 348.136H413.261C413.013 348.136 412.777 348.121 412.552 348.091C412.334 348.061 412.119 347.976 411.907 347.836C411.834 348.618 411.655 349.327 411.371 349.964C411.086 350.6 410.704 351.142 410.225 351.591C409.752 352.045 409.186 352.397 408.525 352.645C407.864 352.894 407.122 353.018 406.298 353.018H405.161V350.755H406.298C406.88 350.755 407.383 350.694 407.807 350.573C408.231 350.452 408.58 350.258 408.852 349.991C409.125 349.724 409.328 349.376 409.461 348.945C409.595 348.521 409.661 348.003 409.661 347.391V341.855H411.925V344.573C411.925 344.852 411.983 345.076 412.098 345.245C412.219 345.415 412.355 345.548 412.507 345.645C412.664 345.736 412.816 345.797 412.961 345.827C413.107 345.858 413.207 345.873 413.261 345.873H413.607V348.136ZM409.125 338.173L410.761 336.518L412.434 338.191L410.78 339.845L409.125 338.173ZM418.496 340.5C418.508 340.542 418.532 340.642 418.569 340.8C418.611 340.958 418.657 341.152 418.705 341.382C418.753 341.606 418.802 341.858 418.85 342.136C418.905 342.415 418.953 342.697 418.996 342.982C419.044 343.261 419.081 343.533 419.105 343.8C419.135 344.067 419.15 344.3 419.15 344.5C419.15 345.124 419.047 345.667 418.841 346.127C418.635 346.582 418.366 346.958 418.032 347.255C417.699 347.552 417.323 347.773 416.905 347.918C416.493 348.064 416.078 348.136 415.66 348.136H413.241V345.873H415.723C415.796 345.873 415.899 345.864 416.032 345.845C416.172 345.821 416.308 345.764 416.441 345.673C416.581 345.582 416.702 345.445 416.805 345.264C416.908 345.076 416.96 344.821 416.96 344.5C416.96 344.367 416.947 344.206 416.923 344.018C416.905 343.824 416.878 343.618 416.841 343.4C416.805 343.182 416.763 342.961 416.714 342.736C416.672 342.506 416.629 342.291 416.587 342.091C416.544 341.885 416.502 341.7 416.46 341.536C416.417 341.367 416.384 341.236 416.36 341.145L418.496 340.5ZM414.523 351.3L416.16 349.645L417.832 351.318L416.178 352.973L414.523 351.3ZM439.817 345.927C440.478 345.927 441.053 345.909 441.544 345.873C442.041 345.83 442.463 345.773 442.808 345.7C443.153 345.627 443.426 345.539 443.626 345.436C443.826 345.327 443.969 345.203 444.053 345.064V345.073C444.084 345.024 444.105 344.961 444.117 344.882C444.129 344.803 444.135 344.727 444.135 344.655C444.135 344.539 444.111 344.409 444.063 344.264C444.02 344.118 443.96 343.967 443.881 343.809C443.808 343.645 443.72 343.482 443.617 343.318C443.514 343.148 443.405 342.982 443.29 342.818C442.829 342.182 442.426 341.636 442.081 341.182C441.735 340.727 441.447 340.352 441.217 340.055C440.944 339.709 440.711 339.418 440.517 339.182L440.999 337.227L449.108 333.409L450.035 335.482L442.881 338.764L445.672 342.545C446.005 343 446.302 343.4 446.563 343.745C446.829 344.085 447.075 344.379 447.299 344.627C447.523 344.87 447.735 345.073 447.935 345.236C448.141 345.394 448.35 345.521 448.563 345.618C448.781 345.709 449.008 345.776 449.244 345.818C449.487 345.855 449.756 345.873 450.053 345.873H450.226V348.136H450.053C449.532 348.136 449.069 348.091 448.663 348C448.256 347.903 447.887 347.77 447.553 347.6C447.226 347.43 446.923 347.224 446.644 346.982C446.366 346.739 446.093 346.467 445.826 346.164C445.578 346.661 445.25 347.045 444.844 347.318C444.438 347.591 443.975 347.791 443.453 347.918C442.938 348.045 442.372 348.121 441.753 348.145C441.135 348.17 440.487 348.182 439.808 348.182L434.408 348.136C433.96 348.136 433.535 348.061 433.135 347.909C432.735 347.758 432.381 347.536 432.072 347.245C431.95 347.13 431.823 346.991 431.69 346.827C431.563 346.664 431.447 346.47 431.344 346.245C431.241 346.021 431.156 345.77 431.09 345.491C431.023 345.206 430.99 344.888 430.99 344.536C430.99 344.233 431.02 343.906 431.081 343.555C431.141 343.197 431.208 342.861 431.281 342.545C431.36 342.23 431.432 341.958 431.499 341.727C431.566 341.497 431.608 341.355 431.626 341.3L432.708 341.645L433.781 341.982C433.726 342.145 433.669 342.342 433.608 342.573C433.547 342.797 433.49 343.03 433.435 343.273C433.381 343.509 433.335 343.739 433.299 343.964C433.263 344.188 433.244 344.382 433.244 344.545C433.244 344.836 433.284 345.073 433.363 345.255C433.447 345.43 433.547 345.567 433.663 345.664C433.784 345.755 433.914 345.815 434.053 345.845C434.193 345.876 434.317 345.891 434.426 345.891L439.817 345.927ZM441.326 334.364L448.253 331.355L448.726 332.373L441.208 335.655L441.326 334.364ZM457.334 345.873V348.136H456.761C456.246 348.136 455.776 348.067 455.352 347.927C454.928 347.788 454.57 347.582 454.279 347.309C453.94 347.594 453.537 347.803 453.07 347.936C452.609 348.07 452.082 348.136 451.488 348.136H449.879V345.873H451.488C451.858 345.873 452.152 345.839 452.37 345.773C452.594 345.7 452.761 345.612 452.87 345.509C452.985 345.406 453.058 345.291 453.088 345.164C453.124 345.036 453.143 344.912 453.143 344.791V341.845H455.397V344.727C455.397 345 455.458 345.215 455.579 345.373C455.7 345.524 455.837 345.639 455.988 345.718C456.146 345.791 456.3 345.836 456.452 345.855C456.603 345.867 456.706 345.873 456.761 345.873H457.334ZM452.097 337.664L453.734 336.009L455.406 337.682L453.752 339.336L452.097 337.664ZM469.534 344.518C469.497 344.542 469.34 344.648 469.061 344.836C468.782 345.024 468.413 345.255 467.952 345.527C467.491 345.794 466.952 346.079 466.334 346.382C465.716 346.685 465.049 346.967 464.334 347.227C463.619 347.488 462.87 347.706 462.088 347.882C461.307 348.052 460.522 348.136 459.734 348.136H456.979V345.873H459.734C460.328 345.873 460.961 345.812 461.634 345.691C462.307 345.57 462.97 345.415 463.625 345.227C464.279 345.033 464.901 344.818 465.488 344.582C466.082 344.345 466.597 344.112 467.034 343.882C466.755 343.797 466.452 343.706 466.125 343.609C465.804 343.506 465.473 343.406 465.134 343.309C464.794 343.206 464.458 343.109 464.125 343.018C463.791 342.921 463.479 342.836 463.188 342.764C462.897 342.691 462.637 342.633 462.407 342.591C462.176 342.548 461.994 342.527 461.861 342.527C461.722 342.527 461.597 342.545 461.488 342.582C461.385 342.612 461.291 342.667 461.207 342.745C461.122 342.818 461.043 342.915 460.97 343.036C460.897 343.158 460.822 343.303 460.743 343.473L458.661 342.845C458.776 342.482 458.916 342.142 459.079 341.827C459.249 341.506 459.452 341.227 459.688 340.991C459.931 340.755 460.21 340.57 460.525 340.436C460.84 340.297 461.201 340.227 461.607 340.227C461.764 340.227 461.988 340.261 462.279 340.327C462.57 340.394 462.901 340.482 463.27 340.591C463.64 340.7 464.034 340.824 464.452 340.964C464.876 341.103 465.301 341.248 465.725 341.4C466.149 341.552 466.561 341.7 466.961 341.845C467.361 341.991 467.722 342.124 468.043 342.245C468.364 342.361 468.634 342.458 468.852 342.536C469.07 342.615 469.21 342.664 469.27 342.682L469.534 344.518ZM461.634 351.255L463.27 349.6L464.943 351.273L463.288 352.927L461.634 351.255ZM487.165 353.027C486.68 353.027 486.214 352.97 485.765 352.855C485.317 352.739 484.892 352.576 484.492 352.364C484.098 352.152 483.732 351.891 483.392 351.582C483.059 351.273 482.768 350.924 482.52 350.536C482.229 350.064 482.004 349.536 481.847 348.955C481.689 348.379 481.611 347.776 481.611 347.145C481.611 346.745 481.635 346.358 481.683 345.982C481.732 345.606 481.807 345.221 481.911 344.827C482.02 344.433 482.159 344.021 482.329 343.591C482.504 343.161 482.717 342.688 482.965 342.173L485.011 343.145C484.792 343.588 484.611 343.985 484.465 344.336C484.32 344.688 484.201 345.021 484.111 345.336C484.02 345.645 483.953 345.945 483.911 346.236C483.874 346.521 483.856 346.821 483.856 347.136C483.856 347.548 483.907 347.942 484.011 348.318C484.114 348.7 484.256 349.042 484.438 349.345C484.729 349.776 485.111 350.118 485.583 350.373C486.062 350.633 486.589 350.764 487.165 350.764H489.011C489.653 350.764 490.174 350.697 490.574 350.564C490.98 350.43 491.295 350.239 491.52 349.991C491.744 349.748 491.895 349.455 491.974 349.109C492.059 348.764 492.101 348.382 492.101 347.964V341.845H494.365V347.964C494.365 349.655 493.917 350.921 493.02 351.764C492.129 352.606 490.792 353.027 489.011 353.027H487.165ZM486.983 341.136L488.62 339.482L490.292 341.155L488.638 342.809L486.983 341.136ZM501.452 348.136C500.786 348.136 500.213 348.094 499.734 348.009C499.255 347.93 498.852 347.812 498.525 347.655C498.198 347.491 497.934 347.285 497.734 347.036C497.54 346.788 497.392 346.497 497.289 346.164C497.186 345.83 497.116 345.455 497.079 345.036C497.049 344.612 497.034 344.145 497.034 343.636V335.027H499.298V343.636C499.298 344.121 499.313 344.509 499.343 344.8C499.379 345.091 499.467 345.318 499.607 345.482C499.752 345.639 499.967 345.745 500.252 345.8C500.543 345.848 500.943 345.873 501.452 345.873V348.136ZM507.843 340.5C507.855 340.542 507.879 340.642 507.916 340.8C507.958 340.958 508.004 341.152 508.052 341.382C508.1 341.606 508.149 341.858 508.197 342.136C508.252 342.415 508.3 342.697 508.343 342.982C508.391 343.261 508.428 343.533 508.452 343.8C508.482 344.067 508.497 344.3 508.497 344.5C508.497 345.124 508.394 345.667 508.188 346.127C507.982 346.582 507.713 346.958 507.379 347.255C507.046 347.552 506.67 347.773 506.252 347.918C505.84 348.064 505.425 348.136 505.007 348.136H501.088V345.873H505.07C505.143 345.873 505.246 345.864 505.379 345.845C505.519 345.821 505.655 345.764 505.788 345.673C505.928 345.582 506.049 345.445 506.152 345.264C506.255 345.076 506.307 344.821 506.307 344.5C506.307 344.367 506.294 344.206 506.27 344.018C506.252 343.824 506.225 343.618 506.188 343.4C506.152 343.182 506.11 342.961 506.061 342.736C506.019 342.506 505.976 342.291 505.934 342.091C505.891 341.885 505.849 341.7 505.807 341.536C505.764 341.367 505.731 341.236 505.707 341.145L507.843 340.5ZM506.788 353.082L505.261 351.536L506.77 349.973L508.334 351.536L506.788 353.082ZM502.979 353.091L501.452 351.545L502.952 349.982L504.516 351.545L502.979 353.091ZM515.261 348.136C514.594 348.136 514.021 348.094 513.543 348.009C513.064 347.93 512.661 347.812 512.334 347.655C512.006 347.491 511.743 347.285 511.543 347.036C511.349 346.788 511.2 346.497 511.097 346.164C510.994 345.83 510.924 345.455 510.888 345.036C510.858 344.612 510.843 344.145 510.843 343.636V335.027H513.106V343.636C513.106 344.121 513.121 344.509 513.152 344.8C513.188 345.091 513.276 345.318 513.415 345.482C513.561 345.639 513.776 345.745 514.061 345.8C514.352 345.848 514.752 345.873 515.261 345.873V348.136ZM521.651 340.5C521.664 340.542 521.688 340.642 521.724 340.8C521.767 340.958 521.812 341.152 521.861 341.382C521.909 341.606 521.958 341.858 522.006 342.136C522.061 342.415 522.109 342.697 522.151 342.982C522.2 343.261 522.236 343.533 522.261 343.8C522.291 344.067 522.306 344.3 522.306 344.5C522.306 345.124 522.203 345.667 521.997 346.127C521.791 346.582 521.521 346.958 521.188 347.255C520.855 347.552 520.479 347.773 520.061 347.918C519.648 348.064 519.233 348.136 518.815 348.136H514.897V345.873H518.879C518.951 345.873 519.055 345.864 519.188 345.845C519.327 345.821 519.464 345.764 519.597 345.673C519.736 345.582 519.858 345.445 519.961 345.264C520.064 345.076 520.115 344.821 520.115 344.5C520.115 344.367 520.103 344.206 520.079 344.018C520.061 343.824 520.033 343.618 519.997 343.4C519.961 343.182 519.918 342.961 519.87 342.736C519.827 342.506 519.785 342.291 519.742 342.091C519.7 341.885 519.658 341.7 519.615 341.536C519.573 341.367 519.539 341.236 519.515 341.145L521.651 340.5ZM515.361 351.127L516.906 349.582L518.451 351.145L516.906 352.691L515.361 351.127ZM519.151 351.145L520.715 349.6L522.261 351.164L520.715 352.709L519.151 351.145ZM517.342 353.691L518.779 352.255L520.233 353.709L518.797 355.145L517.342 353.691ZM540.317 347.582C540.281 348.418 540.126 349.17 539.854 349.836C539.581 350.509 539.205 351.079 538.726 351.545C538.248 352.018 537.669 352.382 536.99 352.636C536.311 352.891 535.545 353.018 534.69 353.018H533.563V350.755H534.69C535.272 350.755 535.775 350.694 536.199 350.573C536.623 350.452 536.972 350.258 537.245 349.991C537.517 349.724 537.72 349.376 537.854 348.945C537.987 348.521 538.054 348.003 538.054 347.391V341.855H540.317V347.582ZM547.026 348.136C546.359 348.136 545.787 348.094 545.308 348.009C544.829 347.93 544.426 347.812 544.099 347.655C543.772 347.491 543.508 347.285 543.308 347.036C543.114 346.788 542.965 346.497 542.862 346.164C542.759 345.83 542.69 345.455 542.653 345.036C542.623 344.612 542.608 344.145 542.608 343.636V335.027H544.872V343.636C544.872 344.121 544.887 344.509 544.917 344.8C544.953 345.091 545.041 345.318 545.181 345.482C545.326 345.639 545.541 345.745 545.826 345.8C546.117 345.848 546.517 345.873 547.026 345.873V348.136ZM546.662 348.136V345.873H548.471L549.235 344.7V335.027H551.49V341.927C551.732 341.679 551.986 341.452 552.253 341.245C552.52 341.033 552.799 340.852 553.09 340.7C553.38 340.542 553.683 340.421 553.999 340.336C554.314 340.245 554.641 340.2 554.98 340.2C555.459 340.2 555.929 340.27 556.39 340.409C556.85 340.548 557.262 340.779 557.626 341.1C557.99 341.421 558.28 341.842 558.499 342.364C558.723 342.885 558.835 343.527 558.835 344.291C558.835 344.6 558.811 344.885 558.762 345.145C558.72 345.406 558.656 345.648 558.571 345.873H560.535V348.136H546.662ZM554.98 342.455C554.629 342.455 554.265 342.548 553.89 342.736C553.514 342.924 553.141 343.176 552.771 343.491C552.402 343.806 552.047 344.17 551.708 344.582C551.368 344.994 551.059 345.424 550.78 345.873H554.98C555.053 345.873 555.153 345.867 555.28 345.855C555.414 345.842 555.553 345.818 555.699 345.782C555.85 345.739 556.002 345.685 556.153 345.618C556.311 345.545 556.45 345.452 556.571 345.336C556.699 345.215 556.802 345.07 556.88 344.9C556.959 344.73 556.999 344.527 556.999 344.291C556.999 343.952 556.941 343.667 556.826 343.436C556.711 343.2 556.559 343.009 556.371 342.864C556.183 342.718 555.968 342.615 555.726 342.555C555.483 342.488 555.235 342.455 554.98 342.455ZM553.735 336.336L555.371 334.682L557.044 336.355L555.39 338.009L553.735 336.336ZM569.941 345.873V348.136H568.596C568.081 348.136 567.611 348.067 567.187 347.927C566.763 347.788 566.405 347.582 566.114 347.309C565.775 347.594 565.372 347.803 564.905 347.936C564.445 348.07 563.917 348.136 563.323 348.136H560.178V345.873H563.323C563.693 345.873 563.987 345.839 564.205 345.773C564.429 345.7 564.596 345.612 564.705 345.509C564.82 345.406 564.893 345.291 564.923 345.164C564.96 345.036 564.978 344.912 564.978 344.791V341.845H567.232V344.727C567.232 345 567.293 345.215 567.414 345.373C567.535 345.524 567.672 345.639 567.823 345.718C567.981 345.791 568.135 345.836 568.287 345.855C568.438 345.867 568.541 345.873 568.596 345.873H569.941ZM566.86 339.5L565.332 337.955L566.841 336.391L568.405 337.955L566.86 339.5ZM563.051 339.509L561.523 337.964L563.023 336.4L564.587 337.964L563.051 339.509ZM574.827 340.5C574.839 340.542 574.863 340.642 574.9 340.8C574.942 340.958 574.988 341.152 575.036 341.382C575.085 341.606 575.133 341.858 575.181 342.136C575.236 342.415 575.285 342.697 575.327 342.982C575.375 343.261 575.412 343.533 575.436 343.8C575.466 344.067 575.481 344.3 575.481 344.5C575.481 345.124 575.378 345.667 575.172 346.127C574.966 346.582 574.697 346.958 574.363 347.255C574.03 347.552 573.654 347.773 573.236 347.918C572.824 348.064 572.409 348.136 571.991 348.136H569.572V345.873H572.054C572.127 345.873 572.23 345.864 572.363 345.845C572.503 345.821 572.639 345.764 572.772 345.673C572.912 345.582 573.033 345.445 573.136 345.264C573.239 345.076 573.291 344.821 573.291 344.5C573.291 344.367 573.278 344.206 573.254 344.018C573.236 343.824 573.209 343.618 573.172 343.4C573.136 343.182 573.094 342.961 573.045 342.736C573.003 342.506 572.96 342.291 572.918 342.091C572.875 341.885 572.833 341.7 572.791 341.536C572.748 341.367 572.715 341.236 572.691 341.145L574.827 340.5ZM571.418 336.845L573.054 335.191L574.727 336.864L573.072 338.518L571.418 336.845ZM579.891 348.136H577.627V335.027H579.891V348.136ZM598.919 347.582C598.882 348.418 598.728 349.17 598.455 349.836C598.182 350.509 597.806 351.079 597.328 351.545C596.849 352.018 596.27 352.382 595.591 352.636C594.913 352.891 594.146 353.018 593.291 353.018H592.164V350.755H593.291C593.873 350.755 594.376 350.694 594.8 350.573C595.225 350.452 595.573 350.258 595.846 349.991C596.119 349.724 596.322 349.376 596.455 348.945C596.588 348.521 596.655 348.003 596.655 347.391V341.855H598.919V347.582ZM604.209 348.145C603.979 348.145 603.752 348.133 603.527 348.109C603.303 348.085 603.076 348.052 602.846 348.009C602.615 347.967 602.379 347.915 602.136 347.855C601.894 347.788 601.639 347.715 601.373 347.636L600.291 347.309L600.946 345.127C601.473 345.309 602.018 345.47 602.582 345.609C603.152 345.748 603.688 345.839 604.191 345.882C604.355 345.894 604.512 345.9 604.664 345.9C604.967 345.9 605.27 345.867 605.573 345.8C605.882 345.733 606.1 345.567 606.227 345.3C606.252 345.252 606.264 345.194 606.264 345.127C606.264 345.085 606.252 345.018 606.227 344.927C606.203 344.836 606.142 344.721 606.046 344.582L602.655 339.636L604.564 338.4L605.182 339.355C605.182 339.361 605.191 339.379 605.209 339.409C605.233 339.439 605.276 339.503 605.336 339.6C605.403 339.697 605.494 339.836 605.609 340.018C605.73 340.194 605.888 340.427 606.082 340.718C606.276 341.009 606.512 341.37 606.791 341.8C607.076 342.224 607.415 342.733 607.809 343.327C608.118 343.794 608.309 344.276 608.382 344.773C608.4 344.9 608.409 345.024 608.409 345.145C608.409 345.509 608.336 345.858 608.191 346.191C608.088 346.433 607.949 346.658 607.773 346.864C607.603 347.064 607.403 347.242 607.173 347.4C606.742 347.697 606.224 347.9 605.618 348.009C605.109 348.1 604.639 348.145 604.209 348.145ZM493.001 379.809H490.964L490.737 369.782H493.237L493.001 379.809ZM491.937 385.318L490.31 383.664L492.001 381.982L493.637 383.664L491.937 385.318ZM505.617 384.136H504.881C504.075 384.136 503.305 383.782 502.572 383.073C502.372 383.309 502.132 383.506 501.854 383.664C501.581 383.815 501.287 383.936 500.972 384.027C500.657 384.118 500.335 384.182 500.008 384.218C499.687 384.255 499.378 384.273 499.081 384.273C498.851 384.273 498.617 384.258 498.381 384.227C498.145 384.203 497.875 384.158 497.572 384.091C497.275 384.03 496.932 383.948 496.545 383.845C496.157 383.736 495.693 383.6 495.154 383.436L495.808 381.264C496.178 381.409 496.56 381.539 496.954 381.655C497.348 381.764 497.732 381.855 498.108 381.927C498.484 381.994 498.845 382.036 499.19 382.055C499.329 382.067 499.463 382.073 499.59 382.073C499.778 382.073 499.981 382.058 500.199 382.027C500.417 381.997 500.62 381.933 500.808 381.836C501.002 381.733 501.132 381.597 501.199 381.427C501.229 381.355 501.245 381.288 501.245 381.227C501.245 381.173 501.226 381.106 501.19 381.027C501.16 380.948 501.108 380.855 501.035 380.745C500.963 380.63 500.869 380.482 500.754 380.3L497.526 375.764L499.435 374.536L502.681 379.455C502.857 379.721 503.042 379.997 503.235 380.282C503.429 380.567 503.623 380.827 503.817 381.064C504.011 381.294 504.199 381.485 504.381 381.636C504.563 381.788 504.729 381.864 504.881 381.864H505.617V384.136ZM510.499 376.5C510.511 376.542 510.535 376.642 510.571 376.8C510.614 376.958 510.659 377.152 510.708 377.382C510.756 377.606 510.805 377.858 510.853 378.136C510.908 378.415 510.956 378.697 510.999 378.982C511.047 379.261 511.083 379.533 511.108 379.8C511.138 380.067 511.153 380.3 511.153 380.5C511.153 381.124 511.05 381.667 510.844 382.127C510.638 382.582 510.368 382.958 510.035 383.255C509.702 383.552 509.326 383.773 508.908 383.918C508.495 384.064 508.08 384.136 507.662 384.136H505.244V381.873H507.726C507.799 381.873 507.902 381.864 508.035 381.845C508.174 381.821 508.311 381.764 508.444 381.673C508.583 381.582 508.705 381.445 508.808 381.264C508.911 381.076 508.962 380.821 508.962 380.5C508.962 380.367 508.95 380.206 508.926 380.018C508.908 379.824 508.88 379.618 508.844 379.4C508.808 379.182 508.765 378.961 508.717 378.736C508.674 378.506 508.632 378.291 508.589 378.091C508.547 377.885 508.505 377.7 508.462 377.536C508.42 377.367 508.386 377.236 508.362 377.145L510.499 376.5ZM507.089 372.845L508.726 371.191L510.399 372.864L508.744 374.518L507.089 372.845ZM514.066 386.755C514.551 386.755 514.982 386.736 515.357 386.7C515.739 386.67 516.075 386.621 516.366 386.555C516.663 386.494 516.921 386.412 517.139 386.309C517.363 386.212 517.557 386.094 517.721 385.955C517.975 385.748 518.166 385.509 518.294 385.236C518.427 384.964 518.506 384.597 518.53 384.136H517.13C516.827 384.136 516.518 384.112 516.203 384.064C515.888 384.015 515.585 383.933 515.294 383.818C515.003 383.697 514.727 383.542 514.466 383.355C514.212 383.167 513.988 382.936 513.794 382.664C513.606 382.385 513.454 382.058 513.339 381.682C513.23 381.306 513.175 380.876 513.175 380.391C513.175 379.973 513.212 379.603 513.285 379.282C513.357 378.955 513.448 378.667 513.557 378.418C513.672 378.17 513.8 377.955 513.939 377.773C514.079 377.585 514.212 377.421 514.339 377.282C514.703 376.918 515.115 376.639 515.575 376.445C516.036 376.245 516.533 376.145 517.066 376.145C517.727 376.145 518.291 376.261 518.757 376.491C519.23 376.715 519.615 377.027 519.912 377.427C520.215 377.827 520.436 378.303 520.575 378.855C520.715 379.4 520.785 379.994 520.785 380.636V381.873H522.33V384.136H520.775C520.751 384.967 520.603 385.667 520.33 386.236C520.063 386.806 519.663 387.303 519.13 387.727C518.851 387.945 518.548 388.133 518.221 388.291C517.894 388.455 517.527 388.591 517.121 388.7C516.715 388.809 516.26 388.888 515.757 388.936C515.26 388.991 514.697 389.018 514.066 389.018V386.755ZM517.066 378.409C516.551 378.409 516.142 378.57 515.839 378.891C515.536 379.212 515.385 379.712 515.385 380.391C515.385 380.658 515.436 380.885 515.539 381.073C515.648 381.261 515.785 381.415 515.948 381.536C516.118 381.652 516.306 381.736 516.512 381.791C516.718 381.845 516.924 381.873 517.13 381.873H518.53V380.636C518.53 380.291 518.503 379.997 518.448 379.755C518.394 379.506 518.321 379.3 518.23 379.136C518.145 378.973 518.045 378.842 517.93 378.745C517.821 378.648 517.712 378.576 517.603 378.527C517.5 378.479 517.4 378.448 517.303 378.436C517.206 378.418 517.127 378.409 517.066 378.409ZM527.139 376.5C527.151 376.542 527.175 376.642 527.212 376.8C527.254 376.958 527.3 377.152 527.348 377.382C527.397 377.606 527.445 377.858 527.494 378.136C527.548 378.415 527.597 378.697 527.639 378.982C527.688 379.261 527.724 379.533 527.748 379.8C527.779 380.067 527.794 380.3 527.794 380.5C527.794 381.124 527.691 381.667 527.485 382.127C527.279 382.582 527.009 382.958 526.675 383.255C526.342 383.552 525.966 383.773 525.548 383.918C525.136 384.064 524.721 384.136 524.303 384.136H521.885V381.873H524.366C524.439 381.873 524.542 381.864 524.675 381.845C524.815 381.821 524.951 381.764 525.085 381.673C525.224 381.582 525.345 381.445 525.448 381.264C525.551 381.076 525.603 380.821 525.603 380.5C525.603 380.367 525.591 380.206 525.566 380.018C525.548 379.824 525.521 379.618 525.485 379.4C525.448 379.182 525.406 378.961 525.357 378.736C525.315 378.506 525.272 378.291 525.23 378.091C525.188 377.885 525.145 377.7 525.103 377.536C525.06 377.367 525.027 377.236 525.003 377.145L527.139 376.5ZM523.73 372.845L525.366 371.191L527.039 372.864L525.385 374.518L523.73 372.845ZM532.203 384.136H529.94V371.027H532.203V384.136ZM540.063 384.136H539.717C539.469 384.136 539.232 384.121 539.008 384.091C538.79 384.061 538.575 383.976 538.363 383.836C538.29 384.618 538.111 385.327 537.826 385.964C537.541 386.6 537.16 387.142 536.681 387.591C536.208 388.045 535.641 388.397 534.981 388.645C534.32 388.894 533.578 389.018 532.754 389.018H531.617V386.755H532.754C533.335 386.755 533.838 386.694 534.263 386.573C534.687 386.452 535.035 386.258 535.308 385.991C535.581 385.724 535.784 385.376 535.917 384.945C536.051 384.521 536.117 384.003 536.117 383.391V377.855H538.381V380.573C538.381 380.852 538.438 381.076 538.554 381.245C538.675 381.415 538.811 381.548 538.963 381.645C539.12 381.736 539.272 381.797 539.417 381.827C539.563 381.858 539.663 381.873 539.717 381.873H540.063V384.136ZM549.461 381.873V384.136H548.115C547.6 384.136 547.13 384.067 546.706 383.927C546.282 383.788 545.924 383.582 545.633 383.309C545.294 383.594 544.891 383.803 544.424 383.936C543.964 384.07 543.436 384.136 542.843 384.136H539.697V381.873H542.843C543.212 381.873 543.506 381.839 543.724 381.773C543.949 381.7 544.115 381.612 544.224 381.509C544.34 381.406 544.412 381.291 544.443 381.164C544.479 381.036 544.497 380.912 544.497 380.791V377.845H546.752V380.727C546.752 381 546.812 381.215 546.933 381.373C547.055 381.524 547.191 381.639 547.343 381.718C547.5 381.791 547.655 381.836 547.806 381.855C547.958 381.867 548.061 381.873 548.115 381.873H549.461ZM545.824 389.136L544.297 387.591L545.806 386.027L547.37 387.591L545.824 389.136ZM542.015 389.145L540.488 387.6L541.988 386.036L543.552 387.6L542.015 389.145ZM554.346 376.5C554.358 376.542 554.383 376.642 554.419 376.8C554.461 376.958 554.507 377.152 554.555 377.382C554.604 377.606 554.652 377.858 554.701 378.136C554.755 378.415 554.804 378.697 554.846 378.982C554.895 379.261 554.931 379.533 554.955 379.8C554.986 380.067 555.001 380.3 555.001 380.5C555.001 381.124 554.898 381.667 554.692 382.127C554.486 382.582 554.216 382.958 553.883 383.255C553.549 383.552 553.173 383.773 552.755 383.918C552.343 384.064 551.928 384.136 551.51 384.136H549.092V381.873H551.573C551.646 381.873 551.749 381.864 551.883 381.845C552.022 381.821 552.158 381.764 552.292 381.673C552.431 381.582 552.552 381.445 552.655 381.264C552.758 381.076 552.81 380.821 552.81 380.5C552.81 380.367 552.798 380.206 552.773 380.018C552.755 379.824 552.728 379.618 552.692 379.4C552.655 379.182 552.613 378.961 552.564 378.736C552.522 378.506 552.479 378.291 552.437 378.091C552.395 377.885 552.352 377.7 552.31 377.536C552.267 377.367 552.234 377.236 552.21 377.145L554.346 376.5ZM550.373 387.3L552.01 385.645L553.683 387.318L552.028 388.973L550.373 387.3ZM566.011 381.818C566.52 381.879 567.048 381.93 567.593 381.973C568.144 382.009 568.687 382.039 569.22 382.064C569.754 382.082 570.269 382.091 570.766 382.091H571.475C571.705 382.091 571.972 382.091 572.275 382.091C572.578 382.085 572.875 382.076 573.166 382.064C573.463 382.045 573.675 382.027 573.802 382.009C573.499 381.706 573.257 381.358 573.075 380.964C572.893 380.564 572.802 380.118 572.802 379.627C572.802 379.148 572.902 378.694 573.102 378.264C573.302 377.833 573.575 377.458 573.92 377.136C574.272 376.815 574.681 376.561 575.148 376.373C575.614 376.185 576.114 376.091 576.648 376.091C577.211 376.091 577.714 376.191 578.157 376.391C578.605 376.585 578.984 376.848 579.293 377.182C579.602 377.509 579.838 377.885 580.002 378.309C580.166 378.733 580.248 379.173 580.248 379.627C580.248 379.882 580.232 380.109 580.202 380.309C580.172 380.509 580.123 380.697 580.057 380.873C579.996 381.042 579.92 381.206 579.829 381.364C579.738 381.521 579.632 381.685 579.511 381.855C579.669 381.867 579.829 381.873 579.993 381.873C580.163 381.873 580.335 381.873 580.511 381.873H581.275V384.136H580.511C579.741 384.136 579.029 384.103 578.375 384.036C577.72 383.97 577.12 383.861 576.575 383.709C576.369 383.782 576.075 383.855 575.693 383.927C575.317 383.994 574.869 384.055 574.348 384.109C573.826 384.164 573.244 384.206 572.602 384.236C571.966 384.273 571.29 384.294 570.575 384.3H570.266C569.648 384.3 568.978 384.285 568.257 384.255C567.535 384.224 566.781 384.167 565.993 384.082C565.544 384.033 565.12 383.945 564.72 383.818C564.32 383.691 563.966 383.482 563.657 383.191C563.535 383.076 563.408 382.936 563.275 382.773C563.148 382.609 563.032 382.415 562.929 382.191C562.826 381.967 562.741 381.715 562.675 381.436C562.608 381.152 562.575 380.833 562.575 380.482C562.575 380.179 562.605 379.855 562.666 379.509C562.726 379.158 562.793 378.827 562.866 378.518C562.944 378.209 563.017 377.942 563.084 377.718C563.151 377.494 563.193 377.355 563.211 377.3L564.293 377.645L565.366 377.982C565.311 378.145 565.254 378.339 565.193 378.564C565.132 378.782 565.075 379.009 565.02 379.245C564.966 379.476 564.92 379.7 564.884 379.918C564.848 380.136 564.829 380.327 564.829 380.491C564.829 380.782 564.869 381.012 564.948 381.182C565.032 381.352 565.132 381.482 565.248 381.573C565.369 381.664 565.499 381.724 565.638 381.755C565.778 381.785 565.902 381.806 566.011 381.818ZM574.993 379.7C574.993 379.93 575.029 380.133 575.102 380.309C575.175 380.485 575.281 380.645 575.42 380.791C575.56 380.93 575.726 381.055 575.92 381.164C576.114 381.273 576.335 381.373 576.584 381.464C576.814 381.373 577.02 381.276 577.202 381.173C577.39 381.07 577.551 380.948 577.684 380.809C577.817 380.67 577.917 380.512 577.984 380.336C578.057 380.155 578.093 379.939 578.093 379.691C578.093 379.545 578.054 379.394 577.975 379.236C577.896 379.079 577.79 378.936 577.657 378.809C577.523 378.676 577.369 378.567 577.193 378.482C577.017 378.397 576.835 378.355 576.648 378.355C576.429 378.355 576.22 378.394 576.02 378.473C575.82 378.545 575.644 378.645 575.493 378.773C575.341 378.894 575.22 379.036 575.129 379.2C575.038 379.364 574.993 379.53 574.993 379.7ZM575.084 372.482L576.72 370.827L578.393 372.5L576.738 374.155L575.084 372.482ZM580.875 381.873C581.457 381.873 581.909 381.824 582.23 381.727C582.551 381.624 582.787 381.497 582.939 381.345C583.097 381.194 583.191 381.027 583.221 380.845C583.257 380.664 583.275 380.491 583.275 380.327V371.027H585.53V380.327C585.53 380.727 585.648 381.073 585.884 381.364C586.127 381.655 586.466 381.824 586.903 381.873H587.121V384.136H586.894C586.591 384.13 586.324 384.109 586.094 384.073C585.869 384.036 585.663 383.979 585.475 383.9C585.287 383.815 585.106 383.706 584.93 383.573C584.76 383.439 584.581 383.276 584.394 383.082C584.236 383.276 584.048 383.442 583.83 383.582C583.618 383.715 583.366 383.824 583.075 383.909C582.791 383.988 582.466 384.045 582.103 384.082C581.739 384.118 581.33 384.136 580.875 384.136V381.873ZM599.297 380.518C599.267 380.536 599.17 380.603 599.006 380.718C598.843 380.827 598.622 380.97 598.343 381.145C598.403 381.327 598.497 381.47 598.625 381.573C598.752 381.67 598.882 381.742 599.016 381.791C599.149 381.833 599.273 381.858 599.388 381.864C599.509 381.87 599.594 381.873 599.643 381.873H601.306V384.136H599.643C598.922 384.13 598.273 383.973 597.697 383.664C597.128 383.348 596.682 382.879 596.361 382.255C595.894 382.485 595.391 382.715 594.852 382.945C594.313 383.17 593.749 383.37 593.161 383.545C592.573 383.721 591.97 383.864 591.352 383.973C590.734 384.082 590.116 384.136 589.497 384.136H586.788V381.873H589.497C590.091 381.873 590.725 381.812 591.397 381.691C592.07 381.57 592.734 381.415 593.388 381.227C594.043 381.033 594.664 380.818 595.252 380.582C595.846 380.345 596.361 380.112 596.797 379.882C596.525 379.797 596.225 379.706 595.897 379.609C595.57 379.506 595.237 379.406 594.897 379.309C594.558 379.206 594.222 379.109 593.888 379.018C593.555 378.921 593.243 378.836 592.952 378.764C592.661 378.691 592.4 378.633 592.17 378.591C591.94 378.548 591.758 378.527 591.625 378.527C591.485 378.527 591.361 378.545 591.252 378.582C591.149 378.612 591.055 378.667 590.97 378.745C590.885 378.818 590.806 378.915 590.734 379.036C590.661 379.158 590.585 379.303 590.506 379.473L588.425 378.845C588.54 378.482 588.679 378.142 588.843 377.827C589.013 377.506 589.216 377.227 589.452 376.991C589.694 376.755 589.973 376.57 590.288 376.436C590.603 376.297 590.964 376.227 591.37 376.227C591.528 376.227 591.752 376.261 592.043 376.327C592.334 376.394 592.664 376.482 593.034 376.591C593.403 376.7 593.797 376.824 594.216 376.964C594.64 377.103 595.064 377.248 595.488 377.4C595.913 377.552 596.325 377.7 596.725 377.845C597.125 377.991 597.485 378.124 597.806 378.245C598.128 378.361 598.397 378.458 598.616 378.536C598.834 378.615 598.973 378.664 599.034 378.682L599.297 380.518ZM589.361 372.536L590.997 370.882L592.67 372.555L591.016 374.209L589.361 372.536ZM607.682 376.5C607.694 376.542 607.718 376.642 607.755 376.8C607.797 376.958 607.843 377.152 607.891 377.382C607.94 377.606 607.988 377.858 608.037 378.136C608.091 378.415 608.14 378.697 608.182 378.982C608.231 379.261 608.267 379.533 608.291 379.8C608.321 380.067 608.337 380.3 608.337 380.5C608.337 381.124 608.234 381.667 608.028 382.127C607.821 382.582 607.552 382.958 607.218 383.255C606.885 383.552 606.509 383.773 606.091 383.918C605.679 384.064 605.264 384.136 604.846 384.136H600.928V381.873H604.909C604.982 381.873 605.085 381.864 605.218 381.845C605.358 381.821 605.494 381.764 605.628 381.673C605.767 381.582 605.888 381.445 605.991 381.264C606.094 381.076 606.146 380.821 606.146 380.5C606.146 380.367 606.134 380.206 606.109 380.018C606.091 379.824 606.064 379.618 606.028 379.4C605.991 379.182 605.949 378.961 605.9 378.736C605.858 378.506 605.815 378.291 605.773 378.091C605.731 377.885 605.688 377.7 605.646 377.536C605.603 377.367 605.57 377.236 605.546 377.145L607.682 376.5ZM606.828 374.727L605.3 373.182L606.809 371.618L608.373 373.182L606.828 374.727ZM603.018 374.736L601.491 373.191L602.991 371.627L604.555 373.191L603.018 374.736Z" fill="white"/>
<defs>
<linearGradient id="paint0_linear_3568_3750" x1="312.5" y1="0" x2="312.5" y2="416" gradientUnits="userSpaceOnUse">
<stop offset="0.6" stop-opacity="0"/>
<stop offset="0.77" stop-opacity="0.5"/>
<stop offset="1"/>
</linearGradient>
</defs>
</svg>
