<svg width="46" height="46" viewBox="0 0 46 46" fill="none" xmlns="http://www.w3.org/2000/svg">
<rect width="46" height="46" rx="5" fill="#500C0B"/>
<path d="M25.5908 30.7074C23.2045 29.818 20.7499 29.6812 18.4999 30.2969C16.9317 30.7074 15.4317 31.5284 14.0681 32.5547L13.1135 33.3757C12.9654 33.5243 12.9726 33.7668 13.1291 33.9065L13.3043 34.0627C13.401 34.149 13.4994 34.2417 13.5908 34.3335C13.7272 34.4703 13.8636 34.5387 14.0681 34.6756C14.3106 34.8378 14.631 34.8206 14.8547 34.6335L14.8863 34.6071C15.0922 34.4005 15.3384 34.2366 15.5695 34.0587C16.7061 33.1842 17.9499 32.5916 19.2499 32.281C21.0908 31.8021 23.0681 31.8705 25.0454 32.6231C26.6817 33.2388 30.0226 33.9914 34.0454 32.281L34.1087 32.2492C34.1571 32.225 34.2012 32.193 34.2395 32.1547L34.2443 32.1498C34.3352 32.0586 34.4317 31.9617 34.5227 31.8705C34.8636 31.46 35.2045 31.0495 35.4772 30.5706C35.8273 30.026 35.2228 29.363 34.659 29.6812C31.4545 31.46 28.5226 31.8021 25.5908 30.7074Z" fill="white"/>
<path d="M23.7295 15.7127C23.7141 17.6209 23.1365 19.5197 21.9003 21.2414C20.5453 23.1436 17.9786 28.2615 21.8214 35.811L22.5446 37.0679L22.5928 37.1517L22.6022 37.1681C22.7134 37.3614 22.9291 37.4697 23.1502 37.4432C23.4313 37.4479 23.7959 37.4043 24.1605 37.3607L24.2985 37.3494C24.7042 37.3163 24.937 36.8719 24.7337 36.5185C24.7038 36.4667 24.6635 36.4216 24.6285 36.3731C24.5595 36.2775 24.5245 36.155 24.4476 36.0213C22.2604 32.3167 20.4309 27.0084 23.6513 22.3496C25.1251 20.2669 25.8921 17.9232 25.8818 15.5831C25.8539 13.3192 25.2338 11.1769 24.1215 9.04321C24.1158 9.03223 24.1258 9.01962 24.1377 9.02283C24.1501 9.02617 24.1602 9.01259 24.1534 9.00164L23.4892 7.92871C23.4212 7.81876 23.3513 7.70206 23.2868 7.58997L23.2826 7.58256C23.1955 7.43125 23.0355 7.33678 22.8611 7.33385C22.5309 7.31248 22.1847 7.35097 21.853 7.33537C21.8195 7.3338 21.7859 7.33421 21.7525 7.33746L21.7001 7.34259C21.2386 7.38763 21.0065 7.9222 21.2881 8.29135C21.3111 8.32158 21.3379 8.34877 21.3626 8.37772C21.3826 8.40128 21.3999 8.42642 21.416 8.45226C21.5177 8.61527 21.6261 8.77696 21.7135 8.948C22.5833 10.6498 23.7287 12.9508 23.7295 15.7127Z" fill="white"/>
<path d="M9.24637 22.4713C9.48647 22.1963 9.76105 21.9511 10.0239 21.6978C11.4945 20.2811 13.1329 19.3743 14.8864 18.8716C16.7273 18.3927 18.7045 18.4611 20.6818 19.2137C26.8182 21.4714 32.1364 17.777 34.4546 15.7929L35.3409 14.9035C35.534 14.7485 35.5769 14.4719 35.4399 14.2657L35.4357 14.2595C35.418 14.2328 35.3975 14.2081 35.3757 14.1846C35.1892 13.9838 35.0569 13.7253 34.8637 13.4668L34.8593 13.461C34.646 13.1755 34.2289 13.1459 33.9773 13.3984C33.9091 13.4668 33.7727 13.6036 33.7046 13.672C30.8409 16.4086 26.4091 19.2137 21.3636 17.2981C18.9773 16.4087 16.5227 16.2718 14.2727 16.8876C12.8409 17.2981 11.4773 17.9822 10.1136 18.8716L8.68182 20.0347C8.54545 20.1715 8.47727 20.2399 8.34091 20.3768C8.25359 20.4644 8.20456 20.5831 8.20456 20.7068V20.7189C8.13638 21.1978 8.13637 21.6767 8.06819 22.0872L8.06737 22.1077C8.04408 22.692 8.75837 22.9918 9.1591 22.5661C9.18797 22.5371 9.21685 22.5051 9.24637 22.4713Z" fill="white"/>
<path d="M27.5682 35.3596L27.4318 35.7701L27.5682 35.3596C27.3637 35.2911 27.2273 35.2227 27.0228 35.1543C24.6364 34.2649 22.1818 34.1281 19.9318 34.7438C19.4546 34.8806 18.9773 35.0175 18.5 35.2227L16.8637 35.9753C16.7104 36.0522 16.7247 36.2754 16.8864 36.3322L17.8182 36.6595C18.2273 36.7963 18.6364 36.9331 19.0455 37.07C19.1782 37.1144 19.3218 37.1144 19.4546 37.07C19.6591 37.0015 19.8637 36.8647 20.0682 36.8647C20.3576 36.8647 20.6182 36.6892 20.9018 36.6314C22.4191 36.3219 24.0503 36.3702 25.7955 36.9331C26 37.0015 26.1364 37.07 26.341 37.1384L26.4817 37.1949C26.6109 37.2467 26.7544 37.2509 26.8864 37.2068C27.3637 37.0699 27.9091 36.9331 28.3182 36.7279C28.8855 36.5246 28.8357 35.7067 28.25 35.5648C28.0455 35.4964 27.7728 35.428 27.5682 35.3596Z" fill="white"/>
<path d="M12.091 14.9034L11.8865 14.4929L12.091 14.9034C12.5001 14.6982 12.9774 14.5613 13.3865 14.4245C15.2274 13.9456 17.2046 14.014 19.1819 14.7666C20.4774 15.2455 21.7728 15.4507 23.2046 15.4507C26.0683 15.4507 28.9319 14.4245 31.591 12.4405L32.6137 11.6195C32.7878 11.4797 32.786 11.2142 32.61 11.0768L32.341 10.8669C32.1365 10.6616 31.8637 10.4564 31.591 10.3196L31.4994 10.2583C31.3104 10.1319 31.0613 10.1427 30.8841 10.285C30.8554 10.308 30.8238 10.3269 30.7935 10.3477C30.7432 10.382 30.7017 10.4252 30.6594 10.4676C30.5635 10.5635 30.4452 10.6352 30.3363 10.7159C26.7773 13.3521 23.2213 14.0628 19.8637 12.7825C17.4092 11.8931 14.9546 11.6879 12.5001 12.4405C12.3108 12.5038 12.1214 12.5671 11.878 12.6304C11.8384 12.6407 11.7998 12.655 11.7632 12.6733L11.755 12.6774C11.7066 12.7017 11.6624 12.7337 11.6242 12.772L11.5919 12.8044C11.5185 12.878 11.4645 12.9626 11.38 13.0232C11.359 13.0383 11.3339 13.0671 11.3193 13.0885C11.0504 13.4847 10.7202 13.8196 10.4546 14.2193L10.3821 14.3303C10.0514 14.8368 10.6084 15.4528 11.1455 15.1746C11.2292 15.1313 11.3223 15.111 11.4159 15.1008C11.6909 15.0707 11.9159 14.962 12.091 14.9034Z" fill="white"/>
<path d="M17.6818 10.2511L17.8864 10.3195C18.7727 10.6616 20.1364 11.0036 21.8409 11.0036C23.6136 11.0036 25.3182 10.5931 27.0227 9.90898L27.7782 9.54217C28.2747 9.30109 28.228 8.57893 27.7046 8.40385C27.3132 8.27294 26.9218 8.14204 26.4707 8.07104C26.4298 8.06459 26.3883 8.06177 26.3468 8.06177C26.2526 8.06177 26.159 8.077 26.0697 8.10687L26 8.13017C25.7955 8.19858 25.5909 8.33543 25.3864 8.40385C23.3409 9.15642 21.2955 9.29325 19.3182 8.74593C19.1136 8.67751 18.9091 8.60908 18.7046 8.54067C18.5718 8.49626 18.4282 8.49627 18.2955 8.54067C17.8864 8.6775 17.4773 8.81434 17.0682 9.01959L16.8675 9.10712C16.4038 9.30943 16.4464 9.98071 16.932 10.1228C17.0633 10.1613 17.2092 10.1416 17.3449 10.1594C17.4488 10.1731 17.5653 10.2121 17.6818 10.2511Z" fill="white"/>
</svg>
