<svg width="25" height="24" viewBox="0 0 25 24" fill="none" xmlns="http://www.w3.org/2000/svg">
<path d="M12.031 14.75C11.621 14.75 11.281 14.41 11.281 14V9C11.281 8.59 11.621 8.25 12.031 8.25C12.441 8.25 12.781 8.59 12.781 9V14C12.781 14.41 12.441 14.75 12.031 14.75Z" fill="#282828"/>
<path d="M12.031 18.0001C11.971 18.0001 11.901 17.9901 11.831 17.9801C11.771 17.9701 11.711 17.9501 11.651 17.9201C11.591 17.9001 11.531 17.8701 11.471 17.8301C11.421 17.7901 11.371 17.7501 11.321 17.7101C11.141 17.5201 11.031 17.2601 11.031 17.0001C11.031 16.7401 11.141 16.4801 11.321 16.2901C11.371 16.2501 11.421 16.2101 11.471 16.1701C11.531 16.1301 11.591 16.1001 11.651 16.0801C11.711 16.0501 11.771 16.0301 11.831 16.0201C11.961 15.9901 12.101 15.9901 12.221 16.0201C12.291 16.0301 12.351 16.0501 12.411 16.0801C12.471 16.1001 12.531 16.1301 12.591 16.1701C12.641 16.2101 12.691 16.2501 12.741 16.2901C12.921 16.4801 13.031 16.7401 13.031 17.0001C13.031 17.2601 12.921 17.5201 12.741 17.7101C12.691 17.7501 12.641 17.7901 12.591 17.8301C12.531 17.8701 12.471 17.9001 12.411 17.9201C12.351 17.9501 12.291 17.9701 12.221 17.9801C12.161 17.9901 12.091 18.0001 12.031 18.0001Z" fill="#282828"/>
<path d="M18.091 22.1601H5.97098C4.02098 22.1601 2.53098 21.4501 1.77098 20.1701C1.02098 18.8901 1.12098 17.2401 2.07098 15.5301L8.13098 4.63009C9.13098 2.83009 10.511 1.84009 12.031 1.84009C13.551 1.84009 14.931 2.83009 15.931 4.63009L21.991 15.5401C22.941 17.2501 23.051 18.8901 22.291 20.1801C21.531 21.4501 20.041 22.1601 18.091 22.1601ZM12.031 3.34009C11.091 3.34009 10.171 4.06009 9.44098 5.36009L3.39098 16.2701C2.71098 17.4901 2.60098 18.6101 3.07098 19.4201C3.54098 20.2301 4.58098 20.6701 5.98098 20.6701H18.101C19.501 20.6701 20.531 20.2301 21.011 19.4201C21.491 18.6101 21.371 17.5001 20.691 16.2701L14.621 5.36009C13.891 4.06009 12.971 3.34009 12.031 3.34009Z" fill="#282828"/>
</svg>
