<svg width="34" height="34" viewBox="0 0 34 34" fill="none" xmlns="http://www.w3.org/2000/svg">
<path d="M23.364 20.789L19.5456 16.9706L23.364 13.1522C24.0598 12.4564 24.0598 11.3024 23.364 10.6066C22.6682 9.91084 21.5142 9.91084 20.8184 10.6066L17 14.425L13.1816 10.6066C12.4858 9.91084 11.3318 9.91084 10.636 10.6066C9.94025 11.3024 9.94025 12.4564 10.636 13.1522L14.4544 16.9706L10.636 20.789C9.94025 21.4848 9.94025 22.6388 10.636 23.3346C11.3318 24.0304 12.4858 24.0304 13.1816 23.3346L17 19.5162L20.8184 23.3346C21.5142 24.0304 22.6682 24.0304 23.364 23.3346C24.0598 22.6388 24.0598 21.4848 23.364 20.789Z" fill="#2F80ED"/>
</svg>
