<svg width="16" height="16" viewBox="0 0 16 16" fill="none" xmlns="http://www.w3.org/2000/svg">
<path d="M10 15.1667H6.00001C2.38001 15.1667 0.833344 13.62 0.833344 10V6.00004C0.833344 2.38004 2.38001 0.833374 6.00001 0.833374H10C13.62 0.833374 15.1667 2.38004 15.1667 6.00004V10C15.1667 13.62 13.62 15.1667 10 15.1667ZM6.00001 1.83337C2.92668 1.83337 1.83334 2.92671 1.83334 6.00004V10C1.83334 13.0734 2.92668 14.1667 6.00001 14.1667H10C13.0733 14.1667 14.1667 13.0734 14.1667 10V6.00004C14.1667 2.92671 13.0733 1.83337 10 1.83337H6.00001Z" fill="#2D2D2D"/>
<path d="M5.99999 7.16667C4.98666 7.16667 4.16666 6.34667 4.16666 5.33333C4.16666 4.32 4.98666 3.5 5.99999 3.5C7.01332 3.5 7.83332 4.32 7.83332 5.33333C7.83332 6.34667 7.01332 7.16667 5.99999 7.16667ZM5.99999 4.5C5.53999 4.5 5.16666 4.87333 5.16666 5.33333C5.16666 5.79333 5.53999 6.16667 5.99999 6.16667C6.45999 6.16667 6.83332 5.79333 6.83332 5.33333C6.83332 4.87333 6.45999 4.5 5.99999 4.5Z" fill="#2D2D2D"/>
<path d="M1.77999 13.1333C1.61999 13.1333 1.45999 13.0533 1.36666 12.9133C1.21332 12.6866 1.27332 12.3733 1.50666 12.22L4.79332 10.0133C5.51332 9.52662 6.50666 9.58662 7.15999 10.14L7.37999 10.3333C7.71332 10.62 8.27999 10.62 8.60666 10.3333L11.38 7.95329C12.0867 7.34662 13.2 7.34662 13.9133 7.95329L15 8.88662C15.2067 9.06662 15.2333 9.37996 15.0533 9.59329C14.8733 9.79996 14.56 9.82662 14.3467 9.64662L13.26 8.71329C12.9267 8.42662 12.36 8.42662 12.0267 8.71329L9.25332 11.0933C8.54666 11.7 7.43332 11.7 6.71999 11.0933L6.49999 10.9C6.19332 10.64 5.68666 10.6133 5.34666 10.8466L2.05999 13.0533C1.97332 13.1066 1.87332 13.1333 1.77999 13.1333Z" fill="#2D2D2D"/>
</svg>
