<svg width="87" height="86" viewBox="0 0 87 86" fill="none" xmlns="http://www.w3.org/2000/svg">
<rect x="0.5" width="86" height="86" rx="10" fill="#FF0C0C"/>
<path d="M48.3439 57.1494C43.8825 55.4923 39.2935 55.2374 35.087 56.3846C32.1552 57.1494 29.3509 58.679 26.8014 60.5911L25.0168 62.1208C24.7402 62.3974 24.7535 62.8498 25.0459 63.1097L25.3736 63.401C25.5543 63.5616 25.7381 63.7343 25.9091 63.9053C26.1641 64.1603 26.419 64.2877 26.8014 64.5427C27.2551 64.8451 27.8536 64.8131 28.2724 64.4641L28.3311 64.4152C28.7161 64.0301 29.1764 63.7248 29.6085 63.3935C31.7334 61.764 34.0587 60.6599 36.4892 60.0812C39.9309 59.1889 43.6275 59.3164 47.3241 60.7186C50.3834 61.8658 56.6295 63.268 64.1502 60.0812L64.269 60.0218C64.3592 59.9767 64.4416 59.9174 64.5128 59.8461L64.5221 59.8368C64.6921 59.6668 64.8726 59.4864 65.0426 59.3164C65.6799 58.5516 66.3173 57.7868 66.8271 56.8945C67.4827 55.8784 66.3514 54.6445 65.2975 55.2373C59.3064 58.5516 53.8252 59.1889 48.3439 57.1494Z" fill="white"/>
<path d="M45.5747 29.3207C45.342 32.8686 44.0611 36.3385 41.5699 39.4086C38.8376 42.8017 33.5005 52.0465 39.8667 66.5012L41.0822 68.9166L41.1633 69.0776L41.1788 69.1086C41.366 69.4805 41.7569 69.7052 42.1726 69.6796C42.6967 69.7186 43.3819 69.6765 44.067 69.6344L44.3271 69.6282C45.0864 69.6101 45.568 68.8073 45.2266 68.1289C45.1766 68.0295 45.1064 67.9417 45.0464 67.8481C44.9276 67.6628 44.8754 67.431 44.7459 67.1738C41.0592 60.0485 38.2113 49.9784 44.7199 41.6577C47.6932 37.9415 49.3751 33.6643 49.6056 29.3102C49.7953 25.0962 48.8669 21.0448 47.0186 16.9568C47.0091 16.9358 47.0291 16.9133 47.051 16.9206C47.0738 16.9281 47.0941 16.9038 47.0826 16.8828L45.9575 14.8159C45.8422 14.604 45.7243 14.3795 45.6159 14.1641L45.609 14.1505C45.4625 13.8592 45.1738 13.6662 44.8487 13.6421C44.2344 13.5669 43.584 13.6015 42.9663 13.5368C42.9042 13.5303 42.8419 13.5275 42.7796 13.53L42.6796 13.5339C41.8152 13.5682 41.325 14.539 41.8105 15.2549C41.8502 15.3134 41.8971 15.3666 41.9399 15.4228C41.9749 15.4689 42.0045 15.5176 42.0319 15.5675C42.2042 15.8817 42.3894 16.1942 42.5344 16.5219C43.976 19.7807 45.868 24.1833 45.5747 29.3207Z" fill="white"/>
<path d="M17.7385 41.8579C18.2257 41.3148 18.765 40.816 19.2928 40.3122C22.0286 37.7014 25.0736 36.0275 28.331 35.0968C31.7727 34.2045 35.4694 34.332 39.166 35.7341C50.6383 39.9406 60.581 33.0572 64.915 29.3606L66.5721 27.7035C66.9327 27.415 67.0129 26.8987 66.7567 26.5145L66.7493 26.5033C66.7163 26.4538 66.678 26.4079 66.6374 26.3643C66.2887 25.9901 66.0412 25.5084 65.6799 25.0266L65.6722 25.0164C65.2726 24.4835 64.4937 24.4282 64.0227 24.8991C63.8953 25.0266 63.6403 25.2815 63.5129 25.409C58.1591 30.5078 49.8735 35.7341 40.4407 32.165C35.9792 30.5079 31.3903 30.2529 27.1838 31.4001C24.5069 32.165 21.9575 33.4397 19.4081 35.0968L16.7312 37.2638C16.4763 37.5187 16.3488 37.6462 16.0939 37.9011L16.0698 37.9252C15.922 38.073 15.8389 38.2735 15.8389 38.4825C15.8389 38.5198 15.8362 38.557 15.8312 38.594C15.7114 39.4677 15.7088 40.3389 15.584 41.0879L15.5827 41.1211C15.539 42.2131 16.8732 42.7747 17.6235 41.9802C17.6617 41.942 17.6999 41.901 17.7385 41.8579Z" fill="white"/>
<path d="M52.0403 65.817L51.7854 66.5819L52.0403 65.817C51.6579 65.6896 51.403 65.5621 51.0206 65.4346C46.5591 63.7775 41.9702 63.5226 37.7637 64.6698C36.8714 64.9248 35.9791 65.1797 35.0868 65.5621L32.0275 66.9643C31.7416 67.1072 31.7681 67.5235 32.0698 67.6291L33.8121 68.239C34.5769 68.4939 35.3417 68.7489 36.1066 69.0038C36.3548 69.0865 36.6232 69.0865 36.8714 69.0038C37.2538 68.8763 37.6362 68.6214 38.0186 68.6214C38.5594 68.6214 39.0469 68.2944 39.5768 68.1867C42.4135 67.6101 45.4633 67.7001 48.7261 68.7488C49.1085 68.8763 49.3635 69.0038 49.7459 69.1313L50.009 69.2365C50.2506 69.3332 50.5187 69.341 50.7656 69.2587C51.6579 69.0038 52.6777 68.7489 53.4425 68.3664C54.5006 67.9886 54.4072 66.4631 53.3151 66.1994C52.9326 66.072 52.4228 65.9445 52.0403 65.817Z" fill="white"/>
<path d="M23.1048 27.7032L22.7224 26.9384L23.1048 27.7032C23.8696 27.3208 24.762 27.0659 25.5268 26.8109C28.9685 25.9186 32.6651 26.0461 36.3618 27.4483C38.7837 28.3406 41.2056 28.723 43.8825 28.723C49.2362 28.723 54.59 26.8109 59.5613 23.1143L61.4734 21.5846C61.7984 21.3246 61.795 20.8292 61.4665 20.5737L60.9635 20.1825C60.5811 19.8 60.0712 19.4176 59.5613 19.1627L59.3897 19.0483C59.0364 18.8128 58.5714 18.833 58.2398 19.0982C58.1862 19.1411 58.127 19.1765 58.0702 19.2151C57.9763 19.2792 57.8987 19.3597 57.8196 19.4385C57.6403 19.6172 57.4193 19.7508 57.2156 19.9011C50.5618 24.8129 43.9137 26.137 37.6365 23.7516C33.0475 22.0945 28.4586 21.7121 23.8696 23.1143C23.5156 23.2323 23.1616 23.3503 22.7065 23.4683C22.6325 23.4875 22.5604 23.5139 22.492 23.5481L22.4761 23.5561C22.386 23.6012 22.3037 23.6605 22.2324 23.7318L22.1718 23.7923C22.0346 23.9295 21.9333 24.0873 21.7755 24.2001C21.7363 24.2282 21.6893 24.2818 21.6622 24.3216C21.1594 25.0599 20.542 25.6838 20.0455 26.4285L19.9143 26.6288C19.295 27.5741 20.3338 28.7264 21.338 28.2081C21.4938 28.1276 21.6673 28.09 21.8417 28.071C22.3562 28.0151 22.7773 27.8124 23.1048 27.7032Z" fill="white"/>
<path d="M33.5573 19.0353L33.9397 19.1628C35.5968 19.8002 38.1462 20.4375 41.333 20.4375C44.6472 20.4375 47.834 19.6727 51.0208 18.398L52.4324 17.7149C53.359 17.2666 53.272 15.9192 52.2955 15.5937C51.5638 15.3498 50.8321 15.1059 49.9888 14.9736C49.9121 14.9616 49.8346 14.9563 49.757 14.9563C49.5809 14.9563 49.4059 14.9847 49.2388 15.0404L49.1087 15.0837C48.7263 15.2112 48.3439 15.4662 47.9614 15.5937C44.1373 16.9958 40.3132 17.2508 36.6166 16.231C36.2342 16.1035 35.8518 15.976 35.4694 15.8486C35.2211 15.7658 34.9528 15.7658 34.7045 15.8486C33.9397 16.1035 33.1749 16.3585 32.4101 16.7409L32.0378 16.9027C31.1718 17.2792 31.2511 18.5326 32.1576 18.797C32.4019 18.8683 32.6728 18.8317 32.9251 18.8643C33.1199 18.8895 33.3386 18.9624 33.5573 19.0353Z" fill="white"/>
</svg>
