<svg width="58" height="58" viewBox="0 0 58 58" fill="none" xmlns="http://www.w3.org/2000/svg">
<g filter="url(#filter0_d_1856_3701)">
<circle cx="29" cy="29" r="23" fill="white"/>
</g>
<path d="M29.02 37.53C26.69 37.53 24.36 37.16 22.15 36.42C21.31 36.13 20.67 35.54 20.39 34.77C20.1 34 20.2 33.15 20.66 32.39L21.81 30.48C22.05 30.08 22.27 29.28 22.27 28.81V25.92C22.27 22.2 25.3 19.17 29.02 19.17C32.74 19.17 35.77 22.2 35.77 25.92V28.81C35.77 29.27 35.99 30.08 36.23 30.49L37.37 32.39C37.8 33.11 37.88 33.98 37.59 34.77C37.3 35.56 36.67 36.16 35.88 36.42C33.68 37.16 31.35 37.53 29.02 37.53ZM29.02 20.67C26.13 20.67 23.77 23.02 23.77 25.92V28.81C23.77 29.54 23.47 30.62 23.1 31.25L21.95 33.16C21.73 33.53 21.67 33.92 21.8 34.25C21.92 34.59 22.22 34.85 22.63 34.99C26.81 36.39 31.24 36.39 35.42 34.99C35.78 34.87 36.06 34.6 36.19 34.24C36.32 33.88 36.29 33.49 36.09 33.16L34.94 31.25C34.56 30.6 34.27 29.53 34.27 28.8V25.92C34.27 23.02 31.92 20.67 29.02 20.67Z" fill="#828282"/>
<path d="M30.88 20.9401C30.81 20.9401 30.74 20.9301 30.67 20.9101C30.38 20.8301 30.1 20.7701 29.83 20.7301C28.98 20.6201 28.16 20.6801 27.39 20.9101C27.11 21.0001 26.81 20.9101 26.62 20.7001C26.43 20.4901 26.37 20.1901 26.48 19.9201C26.89 18.8701 27.89 18.1801 29.03 18.1801C30.17 18.1801 31.17 18.8601 31.58 19.9201C31.68 20.1901 31.63 20.4901 31.44 20.7001C31.29 20.8601 31.08 20.9401 30.88 20.9401Z" fill="#828282"/>
<path d="M29.02 39.8101C28.03 39.8101 27.07 39.4101 26.37 38.7101C25.67 38.0101 25.27 37.0501 25.27 36.0601H26.77C26.77 36.6501 27.01 37.2301 27.43 37.6501C27.85 38.0701 28.43 38.3101 29.02 38.3101C30.26 38.3101 31.27 37.3001 31.27 36.0601H32.77C32.77 38.1301 31.09 39.8101 29.02 39.8101Z" fill="#828282"/>
<circle cx="47" cy="12" r="9" fill="#EB5757"/>
<path d="M49.7955 9.38636C49.7985 9.39848 49.8136 9.45606 49.8409 9.55909C49.8712 9.65909 49.903 9.78485 49.9364 9.93636C49.9697 10.0848 50 10.2455 50.0273 10.4182C50.0545 10.5909 50.0682 10.753 50.0682 10.9045C50.0682 11.1227 50.0455 11.3333 50 11.5364C49.9576 11.7394 49.8864 11.9197 49.7864 12.0773C49.6864 12.2348 49.5545 12.3606 49.3909 12.4545C49.2273 12.5485 49.0242 12.5955 48.7818 12.5955C48.6879 12.5955 48.5879 12.5864 48.4818 12.5682C48.3758 12.547 48.2682 12.5121 48.1591 12.4636C48.053 12.4121 47.9485 12.3424 47.8455 12.2545C47.7424 12.1667 47.647 12.0545 47.5591 11.9182C47.4924 12.0242 47.4197 12.1152 47.3409 12.1909C47.2621 12.2667 47.1803 12.3303 47.0955 12.3818C47.0106 12.4333 46.9242 12.4758 46.8364 12.5091C46.7515 12.5424 46.6682 12.5682 46.5864 12.5864C46.4985 12.6076 46.4091 12.6182 46.3182 12.6182C46.2636 12.6182 46.1848 12.6121 46.0818 12.6C45.9818 12.5848 45.8667 12.5424 45.7364 12.4727C45.7667 12.7758 45.7879 13.0697 45.8 13.3545C45.8152 13.6394 45.8258 13.9121 45.8318 14.1727C45.8379 14.4303 45.8409 14.6742 45.8409 14.9045C45.8409 15.1318 45.8409 15.3424 45.8409 15.5364V15.9955H44.9864V15.5364C44.9864 15.3091 44.9848 15.0485 44.9818 14.7545C44.9818 14.4576 44.9742 14.1424 44.9591 13.8091C44.9439 13.4727 44.9212 13.1242 44.8909 12.7636C44.8636 12.403 44.8242 12.0424 44.7727 11.6818C44.7212 11.3212 44.6561 10.9682 44.5773 10.6227C44.4985 10.2742 44.4045 9.94697 44.2955 9.64091L45.1091 9.37727C45.1394 9.4803 45.1682 9.57727 45.1955 9.66818C45.2227 9.75909 45.2485 9.85303 45.2727 9.95C45.3 10.0439 45.3258 10.1424 45.35 10.2455C45.3773 10.3485 45.4061 10.4636 45.4364 10.5909C45.4697 10.7273 45.5121 10.8667 45.5636 11.0091C45.6182 11.1515 45.6848 11.2803 45.7636 11.3955C45.8424 11.5106 45.9348 11.6015 46.0409 11.6682C46.1288 11.7258 46.2273 11.7545 46.3364 11.7545C46.3606 11.7545 46.3848 11.753 46.4091 11.75C46.5273 11.7379 46.6303 11.6955 46.7182 11.6227C46.8091 11.55 46.8803 11.4303 46.9318 11.2636C46.9833 11.097 47.0152 10.8758 47.0273 10.6C47.0303 10.5485 47.0318 10.4939 47.0318 10.4364C47.0318 10.1909 47.0152 9.89697 46.9818 9.55455L47.8273 9.47273C47.8636 9.84242 47.9045 10.1682 47.95 10.45C47.9985 10.7318 48.0591 10.9682 48.1318 11.1591C48.2045 11.35 48.2924 11.4955 48.3955 11.5955C48.5015 11.6924 48.6303 11.7409 48.7818 11.7409C48.8788 11.7409 48.9576 11.7212 49.0182 11.6818C49.0788 11.6424 49.1242 11.5864 49.1545 11.5136C49.1879 11.4409 49.2091 11.353 49.2182 11.25C49.2212 11.1985 49.2227 11.1439 49.2227 11.0864C49.2227 11.0288 49.2212 10.9682 49.2182 10.9045C49.2121 10.7864 49.1985 10.6636 49.1773 10.5364C49.1591 10.4091 49.1364 10.2879 49.1091 10.1727C49.0848 10.0545 49.0606 9.94848 49.0364 9.85455C49.0121 9.75758 48.9924 9.68182 48.9773 9.62727L49.7955 9.38636Z" fill="white"/>
<defs>
<filter id="filter0_d_1856_3701" x="0" y="0" width="58" height="58" filterUnits="userSpaceOnUse" color-interpolation-filters="sRGB">
<feFlood flood-opacity="0" result="BackgroundImageFix"/>
<feColorMatrix in="SourceAlpha" type="matrix" values="0 0 0 0 0 0 0 0 0 0 0 0 0 0 0 0 0 0 127 0" result="hardAlpha"/>
<feMorphology radius="1" operator="dilate" in="SourceAlpha" result="effect1_dropShadow_1856_3701"/>
<feOffset/>
<feGaussianBlur stdDeviation="2.5"/>
<feComposite in2="hardAlpha" operator="out"/>
<feColorMatrix type="matrix" values="0 0 0 0 0 0 0 0 0 0 0 0 0 0 0 0 0 0 0.11 0"/>
<feBlend mode="normal" in2="BackgroundImageFix" result="effect1_dropShadow_1856_3701"/>
<feBlend mode="normal" in="SourceGraphic" in2="effect1_dropShadow_1856_3701" result="shape"/>
</filter>
</defs>
</svg>
