<svg width="65" height="65" viewBox="0 0 65 65" fill="none" xmlns="http://www.w3.org/2000/svg">
<path d="M56.8749 18.2271C56.8208 18.2271 56.7395 18.2271 56.6583 18.2271C42.3312 16.7917 28.0312 16.25 13.8666 17.6854L8.34159 18.2271C7.20409 18.3354 6.20201 17.5229 6.09367 16.3854C5.98534 15.2479 6.79784 14.2729 7.90826 14.1646L13.4333 13.6229C27.8416 12.1604 42.4395 12.7292 57.0645 14.1646C58.1749 14.2729 58.9874 15.275 58.8791 16.3854C58.7978 17.4417 57.9041 18.2271 56.8749 18.2271Z" fill="#EB5757"/>
<path d="M23.0211 15.4917C22.9127 15.4917 22.8044 15.4917 22.669 15.4646C21.5856 15.275 20.8273 14.2188 21.0169 13.1354L21.6127 9.5875C22.0461 6.9875 22.6419 3.38542 28.9523 3.38542H36.0481C42.3856 3.38542 42.9815 7.12292 43.3877 9.61458L43.9836 13.1354C44.1731 14.2458 43.4148 15.3021 42.3315 15.4646C41.2211 15.6542 40.1648 14.8958 40.0023 13.8125L39.4065 10.2917C39.0273 7.93542 38.9461 7.475 36.0752 7.475H28.9794C26.1086 7.475 26.0544 7.85417 25.6481 10.2646L25.0252 13.7854C24.8627 14.7875 23.9961 15.4917 23.0211 15.4917Z" fill="#EB5757"/>
<path d="M41.194 61.6146H23.8065C14.3544 61.6146 13.9752 56.3875 13.6773 52.1625L11.9169 24.8896C11.8357 23.7792 12.7023 22.8042 13.8127 22.7229C14.9502 22.6688 15.8982 23.5083 15.9794 24.6188L17.7398 51.8917C18.0377 56.0083 18.1461 57.5521 23.8065 57.5521H41.194C46.8815 57.5521 46.9898 56.0083 47.2607 51.8917L49.0211 24.6188C49.1023 23.5083 50.0773 22.6688 51.1877 22.7229C52.2981 22.8042 53.1648 23.7521 53.0836 24.8896L51.3232 52.1625C51.0252 56.3875 50.6461 61.6146 41.194 61.6146Z" fill="#EB5757"/>
<path d="M36.9958 46.7188H27.9771C26.8666 46.7188 25.9458 45.7979 25.9458 44.6875C25.9458 43.5771 26.8666 42.6562 27.9771 42.6562H36.9958C38.1062 42.6562 39.0271 43.5771 39.0271 44.6875C39.0271 45.7979 38.1062 46.7188 36.9958 46.7188Z" fill="#EB5757"/>
<path d="M39.2707 35.8854H25.729C24.6186 35.8854 23.6978 34.9646 23.6978 33.8542C23.6978 32.7437 24.6186 31.8229 25.729 31.8229H39.2707C40.3811 31.8229 41.3019 32.7437 41.3019 33.8542C41.3019 34.9646 40.3811 35.8854 39.2707 35.8854Z" fill="#EB5757"/>
</svg>
